<svg width="60" height="60" viewBox="0 0 60 60" fill="none" xmlns="http://www.w3.org/2000/svg">
<path d="M30 20L20 30M20 30L30 40M20 30H40M19.5 52.5H40.5C44.7004 52.5 46.8006 52.5 48.4049 51.6825C49.8161 50.9635 50.9635 49.8161 51.6825 48.4049C52.5 46.8006 52.5 44.7004 52.5 40.5V19.5C52.5 15.2996 52.5 13.1994 51.6825 11.5951C50.9635 10.1839 49.8161 9.0365 48.4049 8.31745C46.8006 7.5 44.7004 7.5 40.5 7.5H19.5C15.2996 7.5 13.1994 7.5 11.5951 8.31745C10.1839 9.0365 9.0365 10.1839 8.31745 11.5951C7.5 13.1994 7.5 15.2996 7.5 19.5V40.5C7.5 44.7004 7.5 46.8006 8.31745 48.4049C9.0365 49.8161 10.1839 50.9635 11.5951 51.6825C13.1994 52.5 15.2996 52.5 19.5 52.5Z" stroke="#ABA5FF" stroke-width="4" stroke-linecap="round" stroke-linejoin="round"/>
</svg>
