<svg width="50" height="50" viewBox="0 0 50 50" fill="none" xmlns="http://www.w3.org/2000/svg">
<path d="M5.20786 18.75H44.7912M20.8329 6.25L16.6662 18.75L24.9995 42.7083L33.3329 18.75L29.1662 6.25M26.2799 42.2136L44.9437 19.817C45.26 19.4374 45.4182 19.2476 45.4786 19.0358C45.5319 18.849 45.5319 18.651 45.4786 18.4642C45.4182 18.2524 45.26 18.0626 44.9437 17.683L35.9159 6.84969C35.7322 6.62926 35.6404 6.51904 35.5278 6.4398C35.428 6.3696 35.3167 6.31746 35.1989 6.28577C35.066 6.25 34.9225 6.25 34.6356 6.25H15.3635C15.0765 6.25 14.9331 6.25 14.8001 6.28577C14.6823 6.31746 14.571 6.3696 14.4712 6.4398C14.3587 6.51904 14.2668 6.62926 14.0831 6.84969L5.05533 17.683C4.73902 18.0626 4.58087 18.2524 4.52043 18.4642C4.46715 18.651 4.46715 18.849 4.52043 19.0358C4.58087 19.2476 4.73902 19.4374 5.05533 19.817L23.7192 42.2136C24.1589 42.7412 24.3787 43.005 24.6419 43.1012C24.8729 43.1856 25.1262 43.1856 25.3571 43.1012C25.6203 43.005 25.8402 42.7412 26.2799 42.2136Z" stroke="#ABA5FF" stroke-width="3" stroke-linecap="round" stroke-linejoin="round"/>
</svg>
