<svg width="50" height="50" viewBox="0 0 50 50" fill="none" xmlns="http://www.w3.org/2000/svg">
<path d="M12.4993 41.8491H17.9375C18.6465 41.8491 19.3512 41.9334 20.0385 42.1022L25.7845 43.4985C27.0313 43.8022 28.3301 43.8318 29.5899 43.5871L35.943 42.3511C37.6213 42.0241 39.1651 41.2205 40.3751 40.0436L44.87 35.6711C46.1536 34.4245 46.1536 32.4017 44.87 31.1531C43.7142 30.0288 41.8842 29.9023 40.5767 30.8557L35.3381 34.6776C34.5879 35.226 33.675 35.5213 32.7361 35.5213H27.6775L30.8974 35.5212C32.7123 35.5212 34.1824 34.0911 34.1824 32.3257V31.6866C34.1824 30.2206 33.1568 28.9424 31.6953 28.5881L26.7256 27.3795C25.9168 27.1833 25.0885 27.0842 24.2559 27.0842C22.2459 27.0842 18.6075 28.7484 18.6075 28.7484L12.4993 31.3027M4.16602 30.4175L4.16602 42.5008C4.16602 43.6676 4.16602 44.251 4.39309 44.6967C4.59282 45.0887 4.91153 45.4074 5.30353 45.6071C5.74918 45.8342 6.33257 45.8342 7.49935 45.8342H9.16601C10.3328 45.8342 10.9162 45.8342 11.3618 45.6071C11.7538 45.4074 12.0725 45.0887 12.2723 44.6967C12.4993 44.251 12.4993 43.6676 12.4993 42.5008V30.4175C12.4993 29.2507 12.4993 28.6673 12.2723 28.2217C12.0725 27.8297 11.7538 27.511 11.3618 27.3112C10.9162 27.0842 10.3328 27.0842 9.16602 27.0842H7.49935C6.33257 27.0842 5.74919 27.0842 5.30354 27.3112C4.91153 27.511 4.59282 27.8297 4.39309 28.2217C4.16602 28.6673 4.16602 29.2507 4.16602 30.4175ZM35.8147 7.4847C34.5713 4.88292 31.7047 3.50456 28.9169 4.83495C26.1291 6.16534 24.9414 9.32038 26.1086 12.0901C26.83 13.8018 28.8967 17.1258 30.3704 19.4155C30.9149 20.2615 31.1871 20.6845 31.5848 20.9319C31.9258 21.1442 32.3528 21.2586 32.7543 21.2453C33.2224 21.2298 33.6697 20.9996 34.5642 20.5392C36.9853 19.2932 40.4371 17.4478 41.9177 16.3261C44.3134 14.5111 44.9068 11.175 43.1132 8.63884C41.3197 6.10272 38.1924 5.85317 35.8147 7.4847Z" stroke="#ABA5FF" stroke-width="3" stroke-linecap="round" stroke-linejoin="round"/>
</svg>
