<svg width="24" height="24" viewBox="0 0 24 24" fill="none" xmlns="http://www.w3.org/2000/svg">
<path d="M10.1041 12.9481C10.5111 13.4923 11.0305 13.9426 11.6269 14.2685C12.2233 14.5943 12.8829 14.7881 13.5608 14.8367C14.2387 14.8852 14.9191 14.7874 15.5558 14.5499C16.1926 14.3123 16.7709 13.9406 17.2513 13.46L20.0951 10.6162C20.9584 9.72232 21.4362 8.52509 21.4254 7.28238C21.4146 6.03968 20.9161 4.85093 20.0374 3.97218C19.1586 3.09342 17.9699 2.59496 16.7271 2.58416C15.4844 2.57336 14.2872 3.05109 13.3933 3.91444L11.7629 5.53538M13.8957 11.0523C13.4886 10.508 12.9693 10.0577 12.3728 9.73186C11.7764 9.40601 11.1169 9.21224 10.439 9.16369C9.7611 9.11514 9.08069 9.21295 8.44392 9.45048C7.80715 9.68802 7.22891 10.0597 6.74843 10.5404L3.90468 13.3841C3.04132 14.278 2.5636 15.4753 2.5744 16.718C2.5852 17.9607 3.08365 19.1494 3.96241 20.0282C4.84117 20.9069 6.02991 21.4054 7.27262 21.4162C8.51532 21.427 9.71255 20.9493 10.6064 20.0859L12.2274 18.465" stroke="#ECF8F7" stroke-width="2.625" stroke-linecap="round" stroke-linejoin="round"/>
</svg>
