<svg width="81" height="38" viewBox="0 0 81 38" fill="none" xmlns="http://www.w3.org/2000/svg">
<path d="M57.8923 29.0079C57.8923 29.0079 57.8882 29.0044 57.8868 29.0033C57.8854 29.0021 57.8827 28.9998 57.8813 28.9986C57.8799 28.9975 57.8772 28.9952 57.8758 28.994C57.8744 28.9929 57.8717 28.9905 57.8703 28.9894C57.8689 28.9882 57.8662 28.9859 57.8648 28.9848C57.8634 28.9836 57.8607 28.9813 57.8593 28.9801C57.8579 28.979 57.8552 28.9766 57.8538 28.9755C57.8524 28.9743 57.8497 28.972 57.8483 28.9709C57.8469 28.9697 57.8442 28.9674 57.8428 28.9662C57.8414 28.9651 57.8387 28.9628 57.8373 28.9616C57.8359 28.9604 57.8332 28.9581 57.8318 28.957C57.8304 28.9558 57.8277 28.9535 57.8263 28.9523C57.825 28.9512 57.8222 28.9489 57.8208 28.9477C57.8195 28.9465 57.8167 28.9442 57.8153 28.9431C57.814 28.9419 57.8112 28.9396 57.8098 28.9384C57.8085 28.9373 57.8057 28.935 57.8043 28.9338C57.803 28.9326 57.8002 28.9303 57.7988 28.9292C57.7975 28.928 57.7947 28.9257 57.7933 28.9245C57.792 28.9234 57.7892 28.9211 57.7879 28.9199C57.7865 28.9188 57.7837 28.9164 57.7824 28.9153C57.781 28.9141 57.7782 28.9118 57.7769 28.9107C57.7755 28.9095 57.7727 28.9072 57.7714 28.906C57.77 28.9049 57.7672 28.9025 57.7659 28.9014C57.7645 28.9002 57.7617 28.8979 57.7604 28.8968C57.759 28.8956 57.7562 28.8933 57.7549 28.8921C57.7535 28.891 57.7507 28.8887 57.7494 28.8875C57.748 28.8863 57.7452 28.884 57.7439 28.8829C57.7425 28.8817 57.7398 28.8794 57.7384 28.8782C57.737 28.8771 57.7343 28.8748 57.7329 28.8736C57.7315 28.8724 57.7288 28.8701 57.7274 28.869C57.726 28.8678 57.7233 28.8655 57.7219 28.8643C57.7205 28.8632 57.7178 28.8609 57.7164 28.8597C57.715 28.8585 57.7123 28.8562 57.7109 28.8551C57.7095 28.8539 57.7068 28.8516 57.7054 28.8504C57.704 28.8493 57.7013 28.847 57.6999 28.8458C57.6985 28.8447 57.6958 28.8423 57.6944 28.8412C57.693 28.84 57.6903 28.8377 57.6889 28.8365C57.6875 28.8354 57.6848 28.8331 57.6834 28.8319C57.682 28.8308 57.6793 28.8284 57.6779 28.8273C57.6765 28.8261 57.6738 28.8238 57.6724 28.8227C57.671 28.8215 57.6683 28.8192 57.6669 28.818C57.6655 28.8169 57.6628 28.8145 57.6614 28.8134C57.66 28.8122 57.6573 28.8099 57.6559 28.8088C57.6546 28.8076 57.6518 28.8053 57.6504 28.8041C57.6491 28.803 57.6463 28.8007 57.6449 28.7995C57.6436 28.7983 57.6408 28.796 57.6394 28.7949C57.6381 28.7937 57.6353 28.7914 57.6339 28.7902C57.6326 28.7891 57.6298 28.7868 57.6284 28.7856C57.6271 28.7844 57.6243 28.7821 57.6229 28.781C57.6216 28.7798 57.6188 28.7775 57.6174 28.7763C57.6161 28.7752 57.6133 28.7729 57.612 28.7717C57.6106 28.7705 57.6078 28.7682 57.6065 28.7671C57.6051 28.7659 57.6023 28.7636 57.601 28.7624C57.5996 28.7613 57.5968 28.759 57.5955 28.7578C57.5941 28.7567 57.5913 28.7543 57.59 28.7532C57.5886 28.752 57.5858 28.7497 57.5845 28.7485C57.5831 28.7474 57.5803 28.7451 57.579 28.7439C57.5776 28.7428 57.5748 28.7404 57.5735 28.7393C57.5721 28.7381 57.5694 28.7358 57.568 28.7347C57.5666 28.7335 57.5639 28.7312 57.5625 28.73C57.5611 28.7289 57.5584 28.7265 57.557 28.7254C57.5556 28.7242 57.5529 28.7219 57.5515 28.7208C57.5501 28.7196 57.5474 28.7173 57.546 28.7161C57.5446 28.715 57.5419 28.7127 57.5405 28.7115C57.5391 28.7103 57.5364 28.708 57.535 28.7069C57.5336 28.7057 57.5309 28.7034 57.5295 28.7022C57.5281 28.7011 57.5254 28.6988 57.524 28.6976C57.5226 28.6964 57.5199 28.6941 57.5185 28.693C57.5171 28.6918 57.5144 28.6895 57.513 28.6883C57.5116 28.6872 57.5089 28.6849 57.5075 28.6837C57.5061 28.6825 57.5034 28.6802 57.502 28.6791C57.5006 28.6779 57.4979 28.6756 57.4965 28.6744C57.4951 28.6733 57.4924 28.671 57.491 28.6698C57.4896 28.6687 57.4869 28.6663 57.4855 28.6652C57.4842 28.664 57.4814 28.6617 57.48 28.6605C57.4787 28.6594 57.4759 28.6571 57.4745 28.6559C57.4732 28.6548 57.4704 28.6524 57.469 28.6513C57.4677 28.6501 57.4649 28.6478 57.4635 28.6467C57.4622 28.6455 57.4594 28.6432 57.458 28.642C57.4567 28.6409 57.4539 28.6385 57.4525 28.6374C57.4512 28.6362 57.4484 28.6339 57.447 28.6328C57.4457 28.6316 57.4429 28.6293 57.4415 28.6281C57.4402 28.627 57.4374 28.6247 57.4361 28.6235C57.4347 28.6223 57.4319 28.62 57.4306 28.6189C57.4292 28.6177 57.4264 28.6154 57.4251 28.6142C57.4237 28.6131 57.4209 28.6108 57.4196 28.6096C57.4182 28.6084 57.4154 28.6061 57.4141 28.605C57.4127 28.6038 57.4099 28.6015 57.4086 28.6003C57.4072 28.5992 57.4044 28.5969 57.4031 28.5957C57.4017 28.5945 57.3989 28.5922 57.3976 28.5911C57.3962 28.5899 57.3935 28.5876 57.3921 28.5864C57.3907 28.5853 57.388 28.583 57.3866 28.5818C57.3852 28.5807 57.3825 28.5783 57.3811 28.5772C57.3797 28.576 57.377 28.5737 57.3756 28.5725C57.3742 28.5714 57.3715 28.5691 57.3701 28.5679C57.3687 28.5668 57.366 28.5644 57.3646 28.5633C57.3632 28.5621 57.3605 28.5598 57.3591 28.5587C57.3577 28.5575 57.355 28.5552 57.3536 28.554C57.3522 28.5529 57.3495 28.5505 57.3481 28.5494C57.3467 28.5482 57.344 28.5459 57.3426 28.5448C57.3412 28.5436 57.3385 28.5413 57.3371 28.5401C57.3357 28.539 57.333 28.5367 57.3316 28.5355C57.3302 28.5343 57.3275 28.532 57.3261 28.5309C57.3247 28.5297 57.322 28.5274 57.3206 28.5262C57.3192 28.5251 57.3165 28.5228 57.3151 28.5216C57.3138 28.5204 57.311 28.5181 57.3096 28.517C57.3083 28.5158 57.3055 28.5135 57.3041 28.5123C57.3028 28.5112 57.3 28.5089 57.2986 28.5077C57.2973 28.5065 57.2945 28.5042 57.2931 28.5031C57.2918 28.5019 57.289 28.4996 57.2876 28.4984C57.2863 28.4973 57.2835 28.495 57.2821 28.4938C57.2808 28.4927 57.278 28.4903 57.2766 28.4892C57.2753 28.488 57.2725 28.4857 57.2712 28.4845C57.2698 28.4834 57.267 28.4811 57.2657 28.4799C57.2643 28.4788 57.2615 28.4764 57.2602 28.4753C57.2588 28.4741 57.256 28.4718 57.2547 28.4707C57.2533 28.4695 57.2505 28.4672 57.2492 28.466C57.2478 28.4649 57.245 28.4625 57.2437 28.4614C57.2423 28.4602 57.2395 28.4579 57.2382 28.4568C57.2368 28.4556 57.234 28.4533 57.2327 28.4521C57.2313 28.451 57.2285 28.4487 57.2272 28.4475C57.2258 28.4463 57.2231 28.444 57.2217 28.4429C57.2203 28.4417 57.2176 28.4394 57.2162 28.4382C57.2148 28.4371 57.2121 28.4348 57.2107 28.4336C57.2093 28.4324 57.2066 28.4301 57.2052 28.429C57.2038 28.4278 57.2011 28.4255 57.1997 28.4243C57.1983 28.4232 57.1956 28.4209 57.1942 28.4197C57.1928 28.4185 57.1901 28.4162 57.1887 28.4151C57.1873 28.4139 57.1846 28.4116 57.1832 28.4104C57.1818 28.4093 57.1791 28.407 57.1777 28.4058C57.1763 28.4047 57.1736 28.4023 57.1722 28.4012C57.1708 28.4 57.1681 28.3977 57.1667 28.3965C57.1653 28.3954 57.1626 28.3931 57.1612 28.3919C57.1598 28.3908 57.1571 28.3884 57.1557 28.3873C57.1543 28.3861 57.1516 28.3838 57.1502 28.3827C57.1488 28.3815 57.1461 28.3792 57.1447 28.378C57.1433 28.3769 57.1406 28.3745 57.1392 28.3734C57.1379 28.3722 57.1351 28.3699 57.1337 28.3688C57.1324 28.3676 57.1296 28.3653 57.1282 28.3641C57.1269 28.363 57.1241 28.3607 57.1227 28.3595C57.1214 28.3583 57.1186 28.356 57.1172 28.3549C57.1159 28.3537 57.1131 28.3514 57.1117 28.3502C57.1104 28.3491 57.1076 28.3468 57.1062 28.3456C57.1049 28.3444 57.1021 28.3421 57.1008 28.341C57.0994 28.3398 57.0966 28.3375 57.0953 28.3363C57.0939 28.3352 57.0911 28.3329 57.0898 28.3317C57.0884 28.3305 57.0856 28.3282 57.0843 28.3271C57.0829 28.3259 57.0801 28.3236 57.0788 28.3224C57.0774 28.3213 57.0746 28.319 57.0733 28.3178C57.0719 28.3167 57.0691 28.3143 57.0678 28.3132C57.0664 28.312 57.0636 28.3097 57.0623 28.3085C57.0609 28.3074 57.0581 28.3051 57.0568 28.3039C57.0554 28.3028 57.0527 28.3004 57.0513 28.2993C57.0499 28.2981 57.0472 28.2958 57.0458 28.2947C57.0444 28.2935 57.0417 28.2912 57.0403 28.29C57.0389 28.2889 57.0362 28.2865 57.0348 28.2854C57.0334 28.2842 57.0307 28.2819 57.0293 28.2808C57.0279 28.2796 57.0252 28.2773 57.0238 28.2761C57.0224 28.275 57.0197 28.2727 57.0183 28.2715C57.0169 28.2703 57.0142 28.268 57.0128 28.2669C57.0114 28.2657 57.0087 28.2634 57.0073 28.2622C57.0059 28.2611 57.0032 28.2588 57.0018 28.2576C57.0004 28.2564 56.9977 28.2541 56.9963 28.253C56.9949 28.2518 56.9922 28.2495 56.9908 28.2483C56.9894 28.2472 56.9867 28.2449 56.9853 28.2437C56.9839 28.2425 56.9812 28.2402 56.9798 28.2391C56.9784 28.2379 56.9757 28.2356 56.9743 28.2344C56.9729 28.2333 56.9702 28.231 56.9688 28.2298C56.9675 28.2287 56.9647 28.2263 56.9633 28.2252C56.962 28.224 56.9592 28.2217 56.9578 28.2205C56.9565 28.2194 56.9537 28.2171 56.9523 28.2159C56.951 28.2148 56.9482 28.2124 56.9468 28.2113C56.9455 28.2101 56.9427 28.2078 56.9413 28.2067C56.94 28.2055 56.9372 28.2032 56.9358 28.202C56.9345 28.2009 56.9317 28.1985 56.9303 28.1974C56.929 28.1962 56.9262 28.1939 56.9249 28.1928C56.9235 28.1916 56.9207 28.1893 56.9194 28.1881C56.918 28.187 56.9152 28.1847 56.9139 28.1835C56.9125 28.1823 56.9097 28.18 56.9084 28.1789C56.907 28.1777 56.9042 28.1754 56.9029 28.1742C56.9015 28.1731 56.8987 28.1708 56.8974 28.1696C56.896 28.1684 56.8932 28.1661 56.8919 28.165C56.8905 28.1638 56.8877 28.1615 56.8864 28.1603C56.885 28.1592 56.8823 28.1569 56.8809 28.1557C56.8795 28.1545 56.8768 28.1522 56.8754 28.1511C56.874 28.1499 56.8713 28.1476 56.8699 28.1464C56.8685 28.1453 56.8658 28.143 56.8644 28.1418C56.863 28.1407 56.8603 28.1383 56.8589 28.1372C56.8575 28.136 56.8548 28.1337 56.8534 28.1325C56.852 28.1314 56.8493 28.1291 56.8479 28.1279C56.8465 28.1268 56.8438 28.1244 56.8424 28.1233C56.841 28.1221 56.8383 28.1198 56.8369 28.1187C56.8355 28.1175 56.8328 28.1152 56.8314 28.114C56.83 28.1129 56.8273 28.1105 56.8259 28.1094C56.8245 28.1082 56.8218 28.1059 56.8204 28.1048C56.819 28.1036 56.8163 28.1013 56.8149 28.1001C56.8135 28.099 56.8108 28.0967 56.8094 28.0955C56.808 28.0943 56.8053 28.092 56.8039 28.0909C56.8025 28.0897 56.7998 28.0874 56.7984 28.0862C56.7971 28.0851 56.7943 28.0828 56.7929 28.0816C56.7916 28.0804 56.7888 28.0781 56.7874 28.077C56.4068 27.7562 56.1443 27.3683 56.0028 26.9168C55.2305 27.219 54.4568 27.5119 53.6845 27.7944V28.8435C53.6845 29.3703 53.1774 29.7988 52.5508 29.7988H48.9806C48.7319 29.7988 48.5024 29.7304 48.3155 29.6158C46.9963 30.0315 45.7004 30.4194 44.4403 30.7795C42.8311 31.2311 41.1697 31.6583 39.5371 32.052C30.0634 34.1883 14.7589 37.0691 5.68924 33.3789C3.51114 32.492 1.53779 31.0261 0.772358 29.045C-0.00681224 27.065 0.56348 24.8928 1.70269 23.0934C2.72509 21.4608 4.25183 19.9115 6.11936 18.4538C5.80192 18.1747 5.56969 17.847 5.42539 17.4707C4.74242 18.1365 4.08143 18.8231 3.44517 19.5341C1.14477 22.269 -0.878054 25.7542 0.39308 29.1492C1.71094 32.5348 5.78818 34.3678 9.56036 35.4435C18.347 37.8056 27.8867 37.6307 36.8574 36.1197C44.509 34.8066 51.975 32.6333 58.8996 29.5845C58.5299 29.4572 58.2015 29.2742 57.917 29.0345C57.9156 29.0334 57.9129 29.0311 57.9115 29.0299L57.8923 29.0079Z" fill="#ECF8F7"/>
<path d="M69.2468 20.1498C69.2386 20.1556 69.2289 20.1614 69.2207 20.1683C69.2221 20.1695 69.2235 20.1707 69.2248 20.1718C69.2262 20.173 69.2289 20.1753 69.2303 20.1764C69.2317 20.1776 69.2344 20.1799 69.2358 20.1811C69.2372 20.1822 69.2399 20.1846 69.2413 20.1857C69.2427 20.1869 69.2454 20.1892 69.2468 20.1903C69.2482 20.1915 69.2509 20.1938 69.2523 20.195C69.2537 20.1961 69.2564 20.1984 69.2578 20.1996C69.2592 20.2008 69.2619 20.2031 69.2633 20.2042C69.2647 20.2054 69.2674 20.2077 69.2688 20.2089C69.2702 20.21 69.2729 20.2123 69.2743 20.2135C69.2757 20.2147 69.2784 20.217 69.2798 20.2181C69.2812 20.2193 69.2839 20.2216 69.2853 20.2228C69.2867 20.2239 69.2894 20.2262 69.2908 20.2274C69.2922 20.2286 69.2949 20.2309 69.2963 20.232C69.2977 20.2332 69.3004 20.2355 69.3018 20.2367C69.3032 20.2378 69.3059 20.2401 69.3073 20.2413C69.3087 20.2424 69.3114 20.2448 69.3128 20.2459C69.3142 20.2471 69.3169 20.2494 69.3183 20.2506C69.3196 20.2517 69.3224 20.254 69.3238 20.2552C69.3251 20.2563 69.3279 20.2587 69.3293 20.2598C69.3306 20.261 69.3334 20.2633 69.3348 20.2644C69.3361 20.2656 69.3389 20.2679 69.3403 20.2691C69.3416 20.2702 69.3444 20.2726 69.3458 20.2737C69.3471 20.2749 69.3499 20.2772 69.3513 20.2783C69.3526 20.2795 69.3554 20.2818 69.3568 20.283C69.3581 20.2841 69.3609 20.2864 69.3622 20.2876C69.3636 20.2888 69.3664 20.2911 69.3677 20.2922C69.3691 20.2934 69.3719 20.2957 69.3732 20.2969C69.3746 20.298 69.3774 20.3003 69.3787 20.3015C69.3801 20.3027 69.3829 20.305 69.3842 20.3061C69.3856 20.3073 69.3884 20.3096 69.3897 20.3108C69.3911 20.3119 69.3939 20.3142 69.3952 20.3154C69.3966 20.3166 69.3994 20.3189 69.4007 20.32C69.4021 20.3212 69.4048 20.3235 69.4062 20.3247C69.4076 20.3258 69.4103 20.3281 69.4117 20.3293C69.4131 20.3304 69.4158 20.3328 69.4172 20.3339C69.4186 20.3351 69.4213 20.3374 69.4227 20.3386C69.4241 20.3397 69.4268 20.342 69.4282 20.3432C69.4296 20.3443 69.4323 20.3467 69.4337 20.3478C69.4351 20.349 69.4378 20.3513 69.4392 20.3524C69.4406 20.3536 69.4433 20.3559 69.4447 20.3571C69.4461 20.3582 69.4488 20.3606 69.4502 20.3617C69.4516 20.3629 69.4543 20.3652 69.4557 20.3663C69.4571 20.3675 69.4598 20.3698 69.4612 20.371C69.4626 20.3721 69.4653 20.3744 69.4667 20.3756C69.4681 20.3768 69.4708 20.3791 69.4722 20.3802C69.4736 20.3814 69.4763 20.3837 69.4777 20.3849C69.4791 20.386 69.4818 20.3883 69.4832 20.3895C69.4845 20.3907 69.4873 20.393 69.4887 20.3941C69.49 20.3953 69.4928 20.3976 69.4942 20.3988C69.4955 20.3999 69.4983 20.4022 69.4997 20.4034C69.501 20.4046 69.5038 20.4069 69.5052 20.408C69.5065 20.4092 69.5093 20.4115 69.5107 20.4127C69.512 20.4138 69.5148 20.4161 69.5162 20.4173C69.5175 20.4184 69.5203 20.4208 69.5217 20.4219C69.523 20.4231 69.5258 20.4254 69.5272 20.4266C69.5285 20.4277 69.5313 20.43 69.5326 20.4312C69.534 20.4323 69.5368 20.4347 69.5381 20.4358C69.5395 20.437 69.5423 20.4393 69.5436 20.4404C69.545 20.4416 69.5478 20.4439 69.5491 20.4451C69.5505 20.4462 69.5533 20.4486 69.5546 20.4497C69.556 20.4509 69.5588 20.4532 69.5601 20.4543C69.5615 20.4555 69.5643 20.4578 69.5656 20.459C69.567 20.4601 69.5698 20.4624 69.5711 20.4636C69.5725 20.4648 69.5752 20.4671 69.5766 20.4682C69.578 20.4694 69.5807 20.4717 69.5821 20.4729C69.5835 20.474 69.5862 20.4763 69.5876 20.4775C69.589 20.4787 69.5917 20.481 69.5931 20.4821C69.5945 20.4833 69.5972 20.4856 69.5986 20.4868C69.6 20.4879 69.6027 20.4902 69.6041 20.4914C69.6055 20.4926 69.6082 20.4949 69.6096 20.496C69.611 20.4972 69.6137 20.4995 69.6151 20.5007C69.6165 20.5018 69.6192 20.5041 69.6206 20.5053C69.622 20.5064 69.6247 20.5088 69.6261 20.5099C69.6275 20.5111 69.6302 20.5134 69.6316 20.5146C69.633 20.5157 69.6357 20.518 69.6371 20.5192C69.6385 20.5203 69.6412 20.5227 69.6426 20.5238C69.644 20.525 69.6467 20.5273 69.6481 20.5284C69.6495 20.5296 69.6522 20.5319 69.6536 20.5331C69.655 20.5342 69.6577 20.5366 69.6591 20.5377C69.6604 20.5389 69.6632 20.5412 69.6646 20.5423C69.6659 20.5435 69.6687 20.5458 69.6701 20.547C69.6714 20.5481 69.6742 20.5504 69.6756 20.5516C69.6769 20.5528 69.6797 20.5551 69.6811 20.5562C69.6824 20.5574 69.6852 20.5597 69.6866 20.5609C69.6879 20.562 69.6907 20.5643 69.6921 20.5655C69.6934 20.5667 69.6962 20.569 69.6976 20.5701C69.6989 20.5713 69.7017 20.5736 69.703 20.5748C69.7044 20.5759 69.7072 20.5782 69.7085 20.5794C69.7099 20.5806 69.7127 20.5829 69.714 20.584C69.7154 20.5852 69.7182 20.5875 69.7195 20.5887C69.7209 20.5898 69.7237 20.5921 69.725 20.5933C69.7264 20.5944 69.7292 20.5968 69.7305 20.5979C69.7319 20.5991 69.7347 20.6014 69.736 20.6026C69.7374 20.6037 69.7402 20.606 69.7415 20.6072C69.7429 20.6083 69.7456 20.6107 69.747 20.6118C69.7484 20.613 69.7511 20.6153 69.7525 20.6164C69.7539 20.6176 69.7566 20.6199 69.758 20.6211C69.7594 20.6222 69.7621 20.6246 69.7635 20.6257C69.7649 20.6269 69.7676 20.6292 69.769 20.6303C69.7704 20.6315 69.7731 20.6338 69.7745 20.635C69.7759 20.6361 69.7786 20.6384 69.78 20.6396C69.7814 20.6408 69.7841 20.6431 69.7855 20.6442C69.7869 20.6454 69.7896 20.6477 69.791 20.6489C69.7924 20.65 69.7951 20.6523 69.7965 20.6535C69.7979 20.6547 69.8006 20.657 69.802 20.6581C69.8034 20.6593 69.8061 20.6616 69.8075 20.6628C69.8089 20.6639 69.8116 20.6662 69.813 20.6674C69.8144 20.6686 69.8171 20.6709 69.8185 20.672C69.8199 20.6732 69.8226 20.6755 69.824 20.6767C69.8254 20.6778 69.8281 20.6801 69.8295 20.6813C69.8309 20.6824 69.8336 20.6848 69.835 20.6859C69.8363 20.6871 69.8391 20.6894 69.8405 20.6906C69.8418 20.6917 69.8446 20.694 69.846 20.6952C69.8473 20.6963 69.8501 20.6987 69.8515 20.6998C69.8528 20.701 69.8556 20.7033 69.857 20.7044C69.8583 20.7056 69.8611 20.7079 69.8625 20.7091C69.8638 20.7102 69.8666 20.7126 69.868 20.7137C69.8693 20.7149 69.8721 20.7172 69.8734 20.7183C69.8748 20.7195 69.8776 20.7218 69.8789 20.723C69.8803 20.7241 69.8831 20.7264 69.8844 20.7276C69.8858 20.7288 69.8886 20.7311 69.8899 20.7322C69.8913 20.7334 69.8941 20.7357 69.8954 20.7369C69.8968 20.738 69.8996 20.7403 69.9009 20.7415C69.9023 20.7427 69.9051 20.745 69.9064 20.7461C69.9078 20.7473 69.9106 20.7496 69.9119 20.7508C69.9133 20.7519 69.916 20.7542 69.9174 20.7554C69.9188 20.7566 69.9215 20.7589 69.9229 20.76C69.9243 20.7612 69.927 20.7635 69.9284 20.7647C69.9298 20.7658 69.9325 20.7681 69.9339 20.7693C69.9353 20.7704 69.938 20.7728 69.9394 20.7739C69.9408 20.7751 69.9435 20.7774 69.9449 20.7786C69.9463 20.7797 69.949 20.782 69.9504 20.7832C69.9518 20.7843 69.9545 20.7867 69.9559 20.7878C69.9573 20.789 69.96 20.7913 69.9614 20.7924C69.9628 20.7936 69.9655 20.7959 69.9669 20.7971C69.9683 20.7982 69.971 20.8006 69.9724 20.8017C69.9738 20.8029 69.9765 20.8052 69.9779 20.8063C69.9793 20.8075 69.982 20.8098 69.9834 20.811C69.9848 20.8121 69.9875 20.8144 69.9889 20.8156C69.9903 20.8168 69.993 20.8191 69.9944 20.8202C69.9958 20.8214 69.9985 20.8237 69.9999 20.8249C70.0012 20.826 70.004 20.8283 70.0054 20.8295C70.0067 20.8307 70.0095 20.833 70.0109 20.8341C70.0122 20.8353 70.015 20.8376 70.0164 20.8388C70.0177 20.8399 70.0205 20.8422 70.0219 20.8434C70.0232 20.8446 70.026 20.8469 70.0274 20.848C70.0287 20.8492 70.0315 20.8515 70.0329 20.8527C70.0342 20.8538 70.037 20.8561 70.0384 20.8573C70.0397 20.8584 70.0425 20.8608 70.0439 20.8619C70.0452 20.8631 70.048 20.8654 70.0493 20.8666C70.0507 20.8677 70.0535 20.87 70.0548 20.8712C70.0562 20.8723 70.059 20.8747 70.0603 20.8758C70.0617 20.877 70.0645 20.8793 70.0658 20.8804C70.0672 20.8816 70.07 20.8839 70.0713 20.8851C70.0727 20.8862 70.0755 20.8886 70.0768 20.8897C70.0782 20.8909 70.081 20.8932 70.0823 20.8943C70.0837 20.8955 70.0865 20.8978 70.0878 20.899C70.0892 20.9001 70.0919 20.9024 70.0933 20.9036C70.0947 20.9048 70.0974 20.9071 70.0988 20.9082C70.1002 20.9094 70.1029 20.9117 70.1043 20.9129C70.1057 20.914 70.1084 20.9163 70.1098 20.9175C70.1112 20.9187 70.1139 20.921 70.1153 20.9221C70.1167 20.9233 70.1194 20.9256 70.1208 20.9268C70.1222 20.9279 70.1249 20.9302 70.1263 20.9314C70.1277 20.9326 70.1304 20.9349 70.1318 20.936C70.687 21.405 70.9879 22.0279 71.0278 22.7898C72.1807 21.9689 73.2856 21.1016 74.3204 20.1764H70.004C69.7319 20.1764 69.4736 20.1614 69.229 20.1348L69.2468 20.1498Z" fill="#ECF8F7"/>
<path d="M74.151 2.56516C69.0596 0.502961 63.266 0.193805 57.7101 0.166016C43.4088 0.255173 28.1594 2.98779 16.0664 9.65145C16.6848 9.65723 17.2317 9.76608 17.7003 9.97681C17.9133 9.77071 18.2239 9.65029 18.5537 9.65029H21.1551C21.6017 9.65029 22.0291 9.73829 22.4097 9.89576C26.8745 8.15082 31.2568 6.7162 34.7266 5.62431C43.942 2.83263 53.7717 0.567803 63.6535 1.37948C66.5737 1.63075 69.4774 2.13674 72.1392 3.17074C75.0003 4.27884 77.6978 6.22178 77.8998 9.0285C77.996 10.2223 77.6332 11.4219 77.0533 12.508C76.7304 13.1216 76.336 13.7075 75.9004 14.2691C75.4593 14.8029 74.9893 15.3239 74.4918 15.8323C74.4946 15.8346 74.4987 15.838 74.5014 15.8404C74.5056 15.8438 74.5083 15.8462 74.5124 15.8496C74.5166 15.8531 74.5193 15.8554 74.5234 15.8589C74.5276 15.8624 74.5303 15.8647 74.5344 15.8682C74.5386 15.8716 74.5413 15.8739 74.5454 15.8774C74.5495 15.8809 74.5523 15.8832 74.5564 15.8867C74.5605 15.8902 74.5633 15.8925 74.5674 15.8959C74.5715 15.8994 74.5743 15.9017 74.5784 15.9052C74.5825 15.9087 74.5853 15.911 74.5894 15.9145C74.5935 15.9179 74.5963 15.9203 74.6004 15.9237C74.6045 15.9272 74.6073 15.9295 74.6114 15.933C74.6155 15.9365 74.6183 15.9388 74.6224 15.9423C74.6265 15.9457 74.6292 15.948 74.6334 15.9515C74.6375 15.955 74.6402 15.9573 74.6444 15.9608C74.6485 15.9643 74.6512 15.9666 74.6554 15.97L74.6664 15.9793C74.6664 15.9793 74.6732 15.9851 74.6773 15.9886C74.6815 15.992 74.6842 15.9944 74.6883 15.9978C74.6925 16.0013 74.6952 16.0036 74.6993 16.0071C74.7035 16.0106 74.7062 16.0129 74.7103 16.0164C74.7144 16.0198 74.7172 16.0222 74.7213 16.0256C74.7254 16.0291 74.7282 16.0314 74.7323 16.0349C74.7364 16.0384 74.7392 16.0407 74.7433 16.0442C74.7474 16.0476 74.7502 16.0499 74.7543 16.0534C74.7584 16.0569 74.7612 16.0592 74.7653 16.0627C74.7694 16.0662 74.7722 16.0685 74.7763 16.0719C74.7804 16.0754 74.7832 16.0777 74.7873 16.0812C74.7914 16.0847 74.7942 16.087 74.7983 16.0905C74.8024 16.0939 74.8052 16.0963 74.8093 16.0997C74.8134 16.1032 74.8161 16.1055 74.8203 16.109C74.8244 16.1125 74.8271 16.1148 74.8313 16.1183C74.8354 16.1217 74.8381 16.124 74.8423 16.1275C74.8464 16.131 74.8491 16.1333 74.8532 16.1368C74.8574 16.1403 74.8601 16.1426 74.8642 16.146C74.8684 16.1495 74.8711 16.1518 74.8752 16.1553C74.8794 16.1588 74.8821 16.1611 74.8862 16.1646C74.8904 16.168 74.8931 16.1704 74.8972 16.1738C74.9013 16.1773 74.9041 16.1796 74.9082 16.1831C74.9123 16.1866 74.9151 16.1889 74.9192 16.1924C74.9233 16.1958 74.9261 16.1982 74.9302 16.2016C74.9343 16.2051 74.9371 16.2074 74.9412 16.2109C74.9453 16.2144 74.9481 16.2167 74.9522 16.2202C74.9563 16.2236 74.9591 16.2259 74.9632 16.2294C74.9673 16.2329 74.97 16.2352 74.9742 16.2387C74.9783 16.2422 74.981 16.2445 74.9852 16.2479C74.9893 16.2514 74.992 16.2537 74.9962 16.2572C75.0003 16.2607 75.003 16.263 75.0072 16.2665C75.0113 16.2699 75.014 16.2723 75.0181 16.2757C75.0223 16.2792 75.025 16.2815 75.0291 16.285C75.0333 16.2885 75.036 16.2908 75.0401 16.2943C75.0443 16.2977 75.047 16.3 75.0511 16.3035C75.0552 16.307 75.058 16.3093 75.0621 16.3128C75.0662 16.3163 75.069 16.3186 75.0731 16.322C75.0772 16.3255 75.08 16.3278 75.0841 16.3313C75.0882 16.3348 75.091 16.3371 75.0951 16.3406C75.0992 16.344 75.102 16.3464 75.1061 16.3498C75.1102 16.3533 75.113 16.3556 75.1171 16.3591C75.1212 16.3626 75.124 16.3649 75.1281 16.3684C75.1322 16.3718 75.135 16.3742 75.1391 16.3776C75.1432 16.3811 75.1459 16.3834 75.1501 16.3869C75.1542 16.3904 75.1569 16.3927 75.1611 16.3962C75.1652 16.3996 75.1679 16.4019 75.1721 16.4054C75.1762 16.4089 75.1789 16.4112 75.1831 16.4147C75.1872 16.4182 75.1899 16.4205 75.194 16.4239C75.1982 16.4274 75.2009 16.4297 75.205 16.4332C75.2092 16.4367 75.2119 16.439 75.216 16.4425C75.2202 16.4459 75.2229 16.4483 75.227 16.4517C75.2311 16.4552 75.2339 16.4575 75.238 16.461C75.2421 16.4645 75.2449 16.4668 75.249 16.4703C75.2531 16.4737 75.2559 16.476 75.26 16.4795C75.2641 16.483 75.2669 16.4853 75.271 16.4888C75.2751 16.4923 75.2779 16.4946 75.282 16.498C75.2861 16.5015 75.2889 16.5038 75.293 16.5073C75.2971 16.5108 75.2999 16.5131 75.304 16.5166C75.3081 16.52 75.3109 16.5224 75.315 16.5258C75.3191 16.5293 75.3218 16.5316 75.326 16.5351C75.3301 16.5386 75.3328 16.5409 75.337 16.5444C75.3411 16.5478 75.3438 16.5502 75.348 16.5536C75.3521 16.5571 75.3548 16.5594 75.359 16.5629C75.3631 16.5664 75.3658 16.5687 75.3699 16.5722C75.3741 16.5756 75.3768 16.5779 75.3809 16.5814C75.3851 16.5849 75.3878 16.5872 75.3919 16.5907C75.3961 16.5942 75.3988 16.5965 75.4029 16.5999C75.407 16.6034 75.4098 16.6057 75.4139 16.6092C75.418 16.6127 75.4208 16.615 75.4249 16.6185C75.429 16.6219 75.4318 16.6243 75.4359 16.6277C75.44 16.6312 75.4428 16.6335 75.4469 16.637C75.451 16.6405 75.4538 16.6428 75.4579 16.6463C75.462 16.6497 75.4648 16.652 75.4689 16.6555C75.9567 17.0643 76.2687 17.62 76.3017 18.2372C76.5985 17.9165 76.8884 17.5899 77.1674 17.2553C78.3203 15.8496 79.2933 14.3177 79.8471 12.6666C81.3477 8.16356 78.9855 4.55326 74.1332 2.54895L74.151 2.56516Z" fill="#ECF8F7"/>
<path d="M8.52215 18.2831H16.2561C16.9364 18.2831 17.4627 18.1256 17.8365 17.8118C18.2102 17.498 18.3971 17.0499 18.3971 16.4687V15.3826C18.3971 14.2872 17.6826 13.692 16.2548 13.5971L10.5422 13.2821C10.3718 13.2729 10.2536 13.2416 10.1849 13.1884C10.1176 13.1351 10.0832 13.0355 10.0832 12.8908V12.746C10.0832 12.6013 10.1148 12.5017 10.1767 12.4485C10.2385 12.3952 10.3608 12.3686 10.5422 12.3686H14.2828C18.158 12.3686 18.158 13.0703 18.158 13.0703V12.4404C18.158 11.8579 17.9684 11.4064 17.5891 11.0868C17.2098 10.7672 16.6849 10.6074 16.017 10.6074H8.69117C8.01095 10.6074 7.48188 10.7649 7.10123 11.0798C6.72195 11.3948 6.53231 11.8394 6.53231 12.4114V13.3285C6.53231 14.4458 7.25239 15.0421 8.69117 15.1186L14.3859 15.4323C14.5672 15.452 14.6882 15.4845 14.7514 15.5331C14.8132 15.5806 14.8448 15.6767 14.8448 15.8202V16.1352C14.8448 16.288 14.8132 16.3911 14.7514 16.4432C14.6895 16.4953 14.5672 16.5219 14.3859 16.5219H10.2385C6.3674 16.5219 6.36328 15.7195 6.36328 15.7195V16.4501C6.36328 17.0233 6.55567 17.4725 6.94182 17.7968C7.32659 18.121 7.85429 18.2842 8.52215 18.2842V18.2831Z" fill="#ECF8F7"/>
<path d="M33.1206 11.6086L31.5224 15.8997L29.7126 11.5622C29.4735 10.9891 28.8304 10.6047 28.1089 10.6047H27.786C27.0618 10.6047 26.4173 10.9914 26.1795 11.5669L24.3999 15.8846L22.7729 11.5993C22.5475 11.0065 21.8934 10.6035 21.1541 10.6035H18.5527L22.1669 17.4316C22.4403 17.948 23.0491 18.2803 23.7197 18.2803H24.5923C25.2794 18.2803 25.8992 17.9318 26.163 17.3969L27.8863 13.8966L29.6411 17.4038C29.9064 17.9341 30.5234 18.2803 31.2077 18.2803H32.0185C32.6891 18.2803 33.2979 17.948 33.5713 17.4316L37.1855 10.6035H34.7449C34.0015 10.6035 33.346 11.0099 33.1234 11.6074L33.1206 11.6086Z" fill="#ECF8F7"/>
<path d="M47.588 14.8588C48.6682 14.8588 49.5435 14.1212 49.5435 13.2111C49.5435 12.301 49.3003 11.6306 48.8124 11.2195C48.3246 10.8085 47.5372 10.6035 46.4502 10.6035H40.4326C39.3442 10.6035 38.5568 10.8085 38.069 11.2195C37.5811 11.6306 37.3379 12.294 37.3379 13.2111V15.6751C37.3379 16.5921 37.5811 17.2556 38.069 17.6666C38.5554 18.0777 39.3442 18.2826 40.4326 18.2826H46.8583C47.7763 18.2826 48.4538 18.1008 48.8894 17.7384C49.325 17.376 49.5435 16.8029 49.5435 16.0201V15.3613C49.5435 15.3613 49.5435 16.1209 47.588 16.1209H41.8082C41.4564 16.1209 41.2159 16.0664 41.0853 15.9564C40.9548 15.8464 40.8902 15.6438 40.8902 15.3474V14.8599H47.588V14.8588ZM40.8902 13.2111C40.8902 12.9147 40.9548 12.7143 41.0853 12.609C41.2159 12.5036 41.4564 12.4515 41.8082 12.4515H45.2079C45.5597 12.4515 45.8002 12.5036 45.9308 12.609C46.0613 12.7143 46.1259 12.9147 46.1259 13.2111V13.3975H40.8902V13.2111Z" fill="#ECF8F7"/>
<path d="M66.202 8.88672V9.17272C66.202 9.96356 65.4407 10.605 64.5021 10.605H63.8906V12.8687H66.202V16.0205C66.202 16.8032 66.4205 17.3764 66.8561 17.7388C67.2918 18.1024 67.9692 18.283 68.8872 18.283H74.0556V17.4088C74.0556 16.6179 73.2943 15.9765 72.3557 15.9765H70.5033C70.2202 15.9765 70.025 15.9313 69.9165 15.8398C69.8093 15.7495 69.7543 15.584 69.7543 15.3454V12.8675H72.3557C73.2943 12.8675 74.0556 12.2261 74.0556 11.4352V10.605H69.7543V8.88672H66.202Z" fill="#ECF8F7"/>
<path d="M61.0861 14.8588C62.1662 14.8588 63.0416 14.1212 63.0416 13.2111C63.0416 12.301 62.7983 11.6306 62.3105 11.2195C61.8227 10.8085 61.0352 10.6035 59.9483 10.6035H53.9306C52.8423 10.6035 52.0549 10.8085 51.567 11.2195C51.0792 11.6306 50.8359 12.294 50.8359 13.2111V15.6751C50.8359 16.5921 51.0792 17.2556 51.567 17.6666C52.0535 18.0777 52.8423 18.2826 53.9306 18.2826H60.3564C61.2743 18.2826 61.9518 18.1008 62.3875 17.7384C62.8231 17.376 63.0416 16.8029 63.0416 16.0201V15.3613C63.0416 15.3613 63.0416 16.1209 58.8764 16.1209H55.3062C54.9544 16.1209 54.7139 16.0664 54.5834 15.9564C54.4528 15.8464 54.3882 15.6438 54.3882 15.3474V14.8599H61.0861V14.8588ZM54.3882 13.2111C54.3882 12.9147 54.4528 12.7143 54.5834 12.609C54.7139 12.5036 54.9544 12.4515 55.3062 12.4515H58.706C59.0578 12.4515 59.2983 12.5036 59.4288 12.609C59.5593 12.7143 59.6239 12.9147 59.6239 13.2111V13.3975H54.3882V13.2111Z" fill="#ECF8F7"/>
<path d="M9.40585 21.2231C9.40585 20.6534 8.85755 20.1914 8.18144 20.1914H6.49805V27.8694H10.0682V23.4578L10.442 23.1857C10.7141 22.9761 11.1566 22.8708 11.7681 22.8708H13.1286C14.0671 22.8708 14.8284 22.2293 14.8284 21.4385V20.1926H12.8056C11.944 20.1926 11.3036 20.2551 10.8845 20.379C10.4654 20.5029 9.97202 20.7854 9.40585 21.2242V21.2231Z" fill="#ECF8F7"/>
<path d="M18.4498 20.1914H16.9368C16.3547 20.1914 15.8828 20.589 15.8828 21.0795V26.9813C15.8828 27.4718 16.3547 27.8694 16.9368 27.8694H18.4498C19.0319 27.8694 19.5038 27.4718 19.5038 26.9813V21.0795C19.5038 20.589 19.0319 20.1914 18.4498 20.1914Z" fill="#ECF8F7"/>
<path d="M31.108 23.5724C32.206 23.5724 33.0223 22.7075 32.7626 21.809C32.6513 21.4257 32.4685 21.0598 32.1689 20.8074C31.6811 20.3964 30.8936 20.1914 29.8053 20.1914H24.0927C23.0044 20.1914 22.217 20.3964 21.7291 20.8074C21.2413 21.2185 20.998 21.8819 20.998 22.799V25.263C20.998 26.18 21.2413 26.8435 21.7291 27.2545C22.217 27.6656 23.0044 27.8705 24.0927 27.8705H29.8053C30.8936 27.8705 31.6811 27.6656 32.1689 27.2545C32.6554 26.8435 32.9 26.18 32.9 25.263V24.5613C32.9 24.5613 32.8904 25.564 29.4837 25.564H25.4724C25.1206 25.564 24.8802 25.5119 24.7496 25.4065C24.6191 25.3012 24.5545 25.1009 24.5545 24.8044V23.2575C24.5545 22.9611 24.6191 22.7608 24.7496 22.6554C24.8802 22.55 25.1206 22.4979 25.4724 22.4979H28.5658C28.9176 22.4979 29.158 22.55 29.2886 22.6554C29.5483 22.865 29.4837 23.5724 29.4837 23.5724H31.108Z" fill="#ECF8F7"/>
<path d="M34.9225 20.8082C34.4346 21.2192 34.1914 21.8827 34.1914 22.7998V25.2638C34.1914 26.1808 34.4346 26.8443 34.9225 27.2553C35.4089 27.6664 36.1977 27.8713 37.2861 27.8713H43.7119C44.6298 27.8713 45.3073 27.6895 45.7429 27.3271C46.1785 26.9647 46.397 26.3915 46.397 25.6088V24.95C46.397 24.95 46.397 25.7095 44.4415 25.7095H38.6617C38.3099 25.7095 38.0694 25.6551 37.9388 25.5451C37.8083 25.4351 37.7437 25.2325 37.7437 24.9361V24.4486H44.4415C45.5217 24.4486 46.397 23.711 46.397 22.8009C46.397 21.8908 46.1538 21.2204 45.666 20.8094C45.1781 20.3983 44.3907 20.1934 43.3037 20.1934H37.2861C36.1977 20.1934 35.4103 20.3983 34.9225 20.8094V20.8082ZM37.7451 22.7998C37.7451 22.5033 37.8097 22.303 37.9402 22.1977C38.0708 22.0923 38.3113 22.0402 38.663 22.0402H42.0628C42.4146 22.0402 42.6551 22.0923 42.7856 22.1977C42.9162 22.303 42.9808 22.5033 42.9808 22.7998V22.9862H37.7451V22.7998Z" fill="#ECF8F7"/>
<path d="M49.5076 20.1914H47.8242V27.8694H51.3944V23.4578L51.7682 23.1857C52.0403 22.9761 52.4827 22.8708 53.0943 22.8708H54.4547C55.3933 22.8708 56.1546 22.2293 56.1546 21.4385V20.1926H54.1318C53.2702 20.1926 52.6298 20.2551 52.2107 20.379C51.7915 20.5029 51.2982 20.7854 50.732 21.2242C50.732 20.6546 50.1837 20.1926 49.5076 20.1926V20.1914Z" fill="#ECF8F7"/>
<path d="M66.8817 23.183L61.1692 22.8681C60.9988 22.8588 60.8806 22.8276 60.8119 22.7743C60.7445 22.721 60.7102 22.6215 60.7102 22.4767V22.332C60.7102 22.1872 60.7418 22.0877 60.8036 22.0344C60.8655 21.9811 60.9878 21.9545 61.1692 21.9545H64.9097C68.785 21.9545 68.785 22.6562 68.785 22.6562V22.0263C68.785 21.4439 68.5953 20.9923 68.2161 20.6727C67.8368 20.3531 67.3118 20.1934 66.644 20.1934H59.3181C58.6379 20.1934 58.1088 20.3508 57.7282 20.6658C57.3489 20.9807 57.1593 21.4254 57.1593 21.9974V22.9144C57.1593 24.0318 57.8793 24.6281 59.3181 24.7045L65.0128 25.0183C65.1942 25.038 65.3151 25.0704 65.3783 25.119C65.4402 25.1665 65.4718 25.2626 65.4718 25.4062V25.7211C65.4718 25.874 65.4402 25.977 65.3783 26.0291C65.3165 26.0812 65.1942 26.1079 65.0128 26.1079H60.8655C56.9944 26.1079 56.9902 25.3054 56.9902 25.3054V26.0361C56.9902 26.6092 57.1826 27.0585 57.5688 27.3827C57.9536 27.7069 58.4812 27.8702 59.1491 27.8702H66.8831C67.5633 27.8702 68.0896 27.7127 68.4634 27.3989C68.8372 27.0851 69.0241 26.637 69.0241 26.0558V24.9697C69.0241 23.8743 68.3095 23.2791 66.8817 23.1842V23.183Z" fill="#ECF8F7"/>
</svg>
