<svg width="81" height="44" viewBox="0 0 81 44" fill="none" xmlns="http://www.w3.org/2000/svg">
<path d="M57.8923 34.2296C57.8923 34.2296 57.8882 34.2255 57.8868 34.2241C57.8854 34.2228 57.8827 34.22 57.8813 34.2186C57.8799 34.2173 57.8772 34.2145 57.8758 34.2131C57.8744 34.2118 57.8717 34.209 57.8703 34.2076C57.8689 34.2063 57.8662 34.2035 57.8648 34.2021C57.8634 34.2008 57.8607 34.198 57.8593 34.1966C57.8579 34.1953 57.8552 34.1925 57.8538 34.1911C57.8524 34.1898 57.8497 34.187 57.8483 34.1856C57.8469 34.1843 57.8442 34.1815 57.8428 34.1802C57.8414 34.1788 57.8387 34.176 57.8373 34.1747C57.8359 34.1733 57.8332 34.1705 57.8318 34.1692C57.8304 34.1678 57.8277 34.165 57.8263 34.1637C57.825 34.1623 57.8222 34.1595 57.8208 34.1582C57.8195 34.1568 57.8167 34.154 57.8153 34.1527C57.814 34.1513 57.8112 34.1485 57.8098 34.1472C57.8085 34.1458 57.8057 34.143 57.8043 34.1417C57.803 34.1403 57.8002 34.1376 57.7988 34.1362C57.7975 34.1348 57.7947 34.1321 57.7933 34.1307C57.792 34.1293 57.7892 34.1266 57.7878 34.1252C57.7865 34.1238 57.7837 34.1211 57.7824 34.1197C57.781 34.1183 57.7782 34.1156 57.7769 34.1142C57.7755 34.1128 57.7727 34.1101 57.7714 34.1087C57.77 34.1073 57.7672 34.1046 57.7659 34.1032C57.7645 34.1018 57.7617 34.0991 57.7604 34.0977C57.759 34.0963 57.7562 34.0936 57.7549 34.0922C57.7535 34.0908 57.7507 34.0881 57.7494 34.0867C57.748 34.0853 57.7453 34.0826 57.7439 34.0812C57.7425 34.0798 57.7397 34.0771 57.7384 34.0757C57.737 34.0743 57.7343 34.0716 57.7329 34.0702C57.7315 34.0688 57.7288 34.0661 57.7274 34.0647C57.726 34.0633 57.7233 34.0606 57.7219 34.0592C57.7205 34.0578 57.7178 34.0551 57.7164 34.0537C57.715 34.0524 57.7123 34.0496 57.7109 34.0482C57.7095 34.0469 57.7068 34.0441 57.7054 34.0427C57.704 34.0414 57.7013 34.0386 57.6999 34.0372C57.6985 34.0359 57.6958 34.0331 57.6944 34.0317C57.693 34.0304 57.6903 34.0276 57.6889 34.0262C57.6875 34.0249 57.6848 34.0221 57.6834 34.0207C57.682 34.0194 57.6793 34.0166 57.6779 34.0152C57.6765 34.0139 57.6738 34.0111 57.6724 34.0098C57.671 34.0084 57.6683 34.0056 57.6669 34.0043C57.6655 34.0029 57.6628 34.0001 57.6614 33.9988C57.66 33.9974 57.6573 33.9946 57.6559 33.9933C57.6545 33.9919 57.6518 33.9891 57.6504 33.9878C57.6491 33.9864 57.6463 33.9836 57.6449 33.9823C57.6436 33.9809 57.6408 33.9781 57.6394 33.9768C57.6381 33.9754 57.6353 33.9726 57.6339 33.9713C57.6326 33.9699 57.6298 33.9671 57.6284 33.9658C57.6271 33.9644 57.6243 33.9617 57.6229 33.9603C57.6216 33.9589 57.6188 33.9562 57.6174 33.9548C57.6161 33.9534 57.6133 33.9507 57.612 33.9493C57.6106 33.9479 57.6078 33.9452 57.6065 33.9438C57.6051 33.9424 57.6023 33.9397 57.601 33.9383C57.5996 33.9369 57.5968 33.9342 57.5955 33.9328C57.5941 33.9314 57.5913 33.9287 57.59 33.9273C57.5886 33.9259 57.5858 33.9232 57.5845 33.9218C57.5831 33.9204 57.5803 33.9177 57.579 33.9163C57.5776 33.9149 57.5748 33.9122 57.5735 33.9108C57.5721 33.9094 57.5694 33.9067 57.568 33.9053C57.5666 33.9039 57.5639 33.9012 57.5625 33.8998C57.5611 33.8984 57.5584 33.8957 57.557 33.8943C57.5556 33.8929 57.5529 33.8902 57.5515 33.8888C57.5501 33.8874 57.5474 33.8847 57.546 33.8833C57.5446 33.882 57.5419 33.8792 57.5405 33.8778C57.5391 33.8765 57.5364 33.8737 57.535 33.8723C57.5336 33.871 57.5309 33.8682 57.5295 33.8668C57.5281 33.8655 57.5254 33.8627 57.524 33.8613C57.5226 33.86 57.5199 33.8572 57.5185 33.8558C57.5171 33.8545 57.5144 33.8517 57.513 33.8503C57.5116 33.849 57.5089 33.8462 57.5075 33.8448C57.5061 33.8435 57.5034 33.8407 57.502 33.8393C57.5006 33.838 57.4979 33.8352 57.4965 33.8339C57.4951 33.8325 57.4924 33.8297 57.491 33.8284C57.4896 33.827 57.4869 33.8242 57.4855 33.8229C57.4841 33.8215 57.4814 33.8187 57.48 33.8174C57.4787 33.816 57.4759 33.8132 57.4745 33.8119C57.4732 33.8105 57.4704 33.8077 57.469 33.8064C57.4677 33.805 57.4649 33.8022 57.4635 33.8009C57.4622 33.7995 57.4594 33.7967 57.458 33.7954C57.4567 33.794 57.4539 33.7913 57.4525 33.7899C57.4512 33.7885 57.4484 33.7858 57.447 33.7844C57.4457 33.783 57.4429 33.7803 57.4416 33.7789C57.4402 33.7775 57.4374 33.7748 57.4361 33.7734C57.4347 33.772 57.4319 33.7693 57.4306 33.7679C57.4292 33.7665 57.4264 33.7638 57.4251 33.7624C57.4237 33.761 57.4209 33.7583 57.4196 33.7569C57.4182 33.7555 57.4154 33.7528 57.4141 33.7514C57.4127 33.75 57.4099 33.7473 57.4086 33.7459C57.4072 33.7445 57.4044 33.7418 57.4031 33.7404C57.4017 33.739 57.3989 33.7363 57.3976 33.7349C57.3962 33.7335 57.3935 33.7308 57.3921 33.7294C57.3907 33.728 57.388 33.7253 57.3866 33.7239C57.3852 33.7225 57.3825 33.7198 57.3811 33.7184C57.3797 33.717 57.377 33.7143 57.3756 33.7129C57.3742 33.7115 57.3715 33.7088 57.3701 33.7074C57.3687 33.7061 57.366 33.7033 57.3646 33.7019C57.3632 33.7006 57.3605 33.6978 57.3591 33.6964C57.3577 33.6951 57.355 33.6923 57.3536 33.6909C57.3522 33.6896 57.3495 33.6868 57.3481 33.6854C57.3467 33.6841 57.344 33.6813 57.3426 33.6799C57.3412 33.6786 57.3385 33.6758 57.3371 33.6744C57.3357 33.6731 57.333 33.6703 57.3316 33.6689C57.3302 33.6676 57.3275 33.6648 57.3261 33.6635C57.3247 33.6621 57.322 33.6593 57.3206 33.658C57.3192 33.6566 57.3165 33.6538 57.3151 33.6525C57.3138 33.6511 57.311 33.6483 57.3096 33.647C57.3083 33.6456 57.3055 33.6428 57.3041 33.6415C57.3028 33.6401 57.3 33.6373 57.2986 33.636C57.2973 33.6346 57.2945 33.6318 57.2931 33.6305C57.2918 33.6291 57.289 33.6263 57.2876 33.625C57.2863 33.6236 57.2835 33.6209 57.2821 33.6195C57.2808 33.6181 57.278 33.6154 57.2766 33.614C57.2753 33.6126 57.2725 33.6099 57.2711 33.6085C57.2698 33.6071 57.267 33.6044 57.2657 33.603C57.2643 33.6016 57.2615 33.5989 57.2602 33.5975C57.2588 33.5961 57.256 33.5934 57.2547 33.592C57.2533 33.5906 57.2505 33.5879 57.2492 33.5865C57.2478 33.5851 57.245 33.5824 57.2437 33.581C57.2423 33.5796 57.2395 33.5769 57.2382 33.5755C57.2368 33.5741 57.234 33.5714 57.2327 33.57C57.2313 33.5686 57.2285 33.5659 57.2272 33.5645C57.2258 33.5631 57.2231 33.5604 57.2217 33.559C57.2203 33.5576 57.2176 33.5549 57.2162 33.5535C57.2148 33.5521 57.2121 33.5494 57.2107 33.548C57.2093 33.5466 57.2066 33.5439 57.2052 33.5425C57.2038 33.5411 57.2011 33.5384 57.1997 33.537C57.1983 33.5357 57.1956 33.5329 57.1942 33.5315C57.1928 33.5302 57.1901 33.5274 57.1887 33.526C57.1873 33.5247 57.1846 33.5219 57.1832 33.5205C57.1818 33.5192 57.1791 33.5164 57.1777 33.515C57.1763 33.5137 57.1736 33.5109 57.1722 33.5095C57.1708 33.5082 57.1681 33.5054 57.1667 33.504C57.1653 33.5027 57.1626 33.4999 57.1612 33.4985C57.1598 33.4972 57.1571 33.4944 57.1557 33.4931C57.1543 33.4917 57.1516 33.4889 57.1502 33.4876C57.1488 33.4862 57.1461 33.4834 57.1447 33.4821C57.1433 33.4807 57.1406 33.4779 57.1392 33.4766C57.1379 33.4752 57.1351 33.4724 57.1337 33.4711C57.1324 33.4697 57.1296 33.4669 57.1282 33.4656C57.1269 33.4642 57.1241 33.4614 57.1227 33.4601C57.1214 33.4587 57.1186 33.4559 57.1172 33.4546C57.1159 33.4532 57.1131 33.4505 57.1117 33.4491C57.1104 33.4477 57.1076 33.445 57.1062 33.4436C57.1049 33.4422 57.1021 33.4395 57.1007 33.4381C57.0994 33.4367 57.0966 33.434 57.0953 33.4326C57.0939 33.4312 57.0911 33.4285 57.0898 33.4271C57.0884 33.4257 57.0856 33.423 57.0843 33.4216C57.0829 33.4202 57.0801 33.4175 57.0788 33.4161C57.0774 33.4147 57.0746 33.412 57.0733 33.4106C57.0719 33.4092 57.0691 33.4065 57.0678 33.4051C57.0664 33.4037 57.0636 33.401 57.0623 33.3996C57.0609 33.3982 57.0582 33.3955 57.0568 33.3941C57.0554 33.3927 57.0527 33.39 57.0513 33.3886C57.0499 33.3872 57.0472 33.3845 57.0458 33.3831C57.0444 33.3817 57.0417 33.379 57.0403 33.3776C57.0389 33.3762 57.0362 33.3735 57.0348 33.3721C57.0334 33.3707 57.0307 33.368 57.0293 33.3666C57.0279 33.3653 57.0252 33.3625 57.0238 33.3611C57.0224 33.3598 57.0197 33.357 57.0183 33.3556C57.0169 33.3543 57.0142 33.3515 57.0128 33.3501C57.0114 33.3488 57.0087 33.346 57.0073 33.3446C57.0059 33.3433 57.0032 33.3405 57.0018 33.3391C57.0004 33.3378 56.9977 33.335 56.9963 33.3336C56.9949 33.3323 56.9922 33.3295 56.9908 33.3281C56.9894 33.3268 56.9867 33.324 56.9853 33.3227C56.9839 33.3213 56.9812 33.3185 56.9798 33.3172C56.9784 33.3158 56.9757 33.313 56.9743 33.3117C56.9729 33.3103 56.9702 33.3075 56.9688 33.3062C56.9674 33.3048 56.9647 33.302 56.9633 33.3007C56.962 33.2993 56.9592 33.2965 56.9578 33.2952C56.9565 33.2938 56.9537 33.291 56.9523 33.2897C56.951 33.2883 56.9482 33.2855 56.9468 33.2842C56.9455 33.2828 56.9427 33.2801 56.9413 33.2787C56.94 33.2773 56.9372 33.2746 56.9358 33.2732C56.9345 33.2718 56.9317 33.2691 56.9303 33.2677C56.929 33.2663 56.9262 33.2636 56.9249 33.2622C56.9235 33.2608 56.9207 33.2581 56.9194 33.2567C56.918 33.2553 56.9152 33.2526 56.9139 33.2512C56.9125 33.2498 56.9097 33.2471 56.9084 33.2457C56.907 33.2443 56.9042 33.2416 56.9029 33.2402C56.9015 33.2388 56.8987 33.2361 56.8974 33.2347C56.896 33.2333 56.8932 33.2306 56.8919 33.2292C56.8905 33.2278 56.8877 33.2251 56.8864 33.2237C56.885 33.2223 56.8823 33.2196 56.8809 33.2182C56.8795 33.2168 56.8768 33.2141 56.8754 33.2127C56.874 33.2113 56.8713 33.2086 56.8699 33.2072C56.8685 33.2058 56.8658 33.2031 56.8644 33.2017C56.863 33.2003 56.8603 33.1976 56.8589 33.1962C56.8575 33.1949 56.8548 33.1921 56.8534 33.1907C56.852 33.1894 56.8493 33.1866 56.8479 33.1852C56.8465 33.1839 56.8438 33.1811 56.8424 33.1797C56.841 33.1784 56.8383 33.1756 56.8369 33.1742C56.8355 33.1729 56.8328 33.1701 56.8314 33.1687C56.83 33.1674 56.8273 33.1646 56.8259 33.1632C56.8245 33.1619 56.8218 33.1591 56.8204 33.1577C56.819 33.1564 56.8163 33.1536 56.8149 33.1523C56.8135 33.1509 56.8108 33.1481 56.8094 33.1468C56.808 33.1454 56.8053 33.1426 56.8039 33.1413C56.8026 33.1399 56.7998 33.1371 56.7984 33.1358C56.7971 33.1344 56.7943 33.1316 56.7929 33.1303C56.7916 33.1289 56.7888 33.1261 56.7874 33.1248C56.4068 32.7441 56.1443 32.2838 56.0028 31.7478C55.2305 32.1065 54.4568 32.4542 53.6845 32.7895V34.0345C53.6845 34.6597 53.1774 35.1682 52.5508 35.1682H48.9806C48.7319 35.1682 48.5024 35.0871 48.3155 34.9511C46.9963 35.4444 45.7004 35.9048 44.4403 36.3321C42.8311 36.8681 41.1697 37.3752 39.5371 37.8424C30.0634 40.3778 14.7589 43.7968 5.68924 39.4172C3.51114 38.3646 1.53779 36.6249 0.772358 34.2736C-0.00681224 31.9237 0.56348 29.3457 1.70269 27.2102C2.72509 25.2726 4.25183 23.4339 6.11936 21.7038C5.80192 21.3726 5.56968 20.9837 5.42539 20.5371C4.74242 21.3273 4.08143 22.1422 3.44517 22.9859C1.14477 26.2318 -0.878054 30.3681 0.39308 34.3973C1.71094 38.4154 5.78818 40.5908 9.56036 41.8674C18.347 44.6708 27.8867 44.4633 36.8574 42.67C44.509 41.1116 51.975 38.5322 58.8996 34.914C58.5299 34.7628 58.2015 34.5457 57.917 34.2612C57.9156 34.2599 57.9129 34.2571 57.9115 34.2557L57.8923 34.2296Z" fill="#ECF8F7"/>
<path d="M69.2468 23.7171C69.2386 23.724 69.2289 23.7308 69.2207 23.7391C69.2221 23.7404 69.2235 23.7418 69.2248 23.7432C69.2262 23.7446 69.2289 23.7473 69.2303 23.7487C69.2317 23.7501 69.2344 23.7528 69.2358 23.7542C69.2372 23.7556 69.2399 23.7583 69.2413 23.7597C69.2427 23.7611 69.2454 23.7638 69.2468 23.7652C69.2482 23.7666 69.2509 23.7693 69.2523 23.7707C69.2537 23.772 69.2564 23.7748 69.2578 23.7762C69.2592 23.7775 69.2619 23.7803 69.2633 23.7817C69.2647 23.783 69.2674 23.7858 69.2688 23.7872C69.2702 23.7885 69.2729 23.7913 69.2743 23.7927C69.2757 23.794 69.2784 23.7968 69.2798 23.7982C69.2812 23.7995 69.2839 23.8023 69.2853 23.8037C69.2867 23.805 69.2894 23.8078 69.2908 23.8092C69.2922 23.8105 69.2949 23.8133 69.2963 23.8147C69.2977 23.816 69.3004 23.8188 69.3018 23.8201C69.3032 23.8215 69.3059 23.8243 69.3073 23.8256C69.3087 23.827 69.3114 23.8298 69.3128 23.8311C69.3142 23.8325 69.3169 23.8353 69.3183 23.8366C69.3196 23.838 69.3224 23.8408 69.3238 23.8421C69.3251 23.8435 69.3279 23.8463 69.3293 23.8476C69.3306 23.849 69.3334 23.8518 69.3348 23.8531C69.3361 23.8545 69.3389 23.8572 69.3403 23.8586C69.3416 23.86 69.3444 23.8627 69.3458 23.8641C69.3471 23.8655 69.3499 23.8682 69.3513 23.8696C69.3526 23.871 69.3554 23.8737 69.3568 23.8751C69.3581 23.8765 69.3609 23.8792 69.3622 23.8806C69.3636 23.882 69.3664 23.8847 69.3677 23.8861C69.3691 23.8875 69.3719 23.8902 69.3732 23.8916C69.3746 23.893 69.3774 23.8957 69.3787 23.8971C69.3801 23.8985 69.3829 23.9012 69.3842 23.9026C69.3856 23.904 69.3884 23.9067 69.3897 23.9081C69.3911 23.9095 69.3939 23.9122 69.3952 23.9136C69.3966 23.915 69.3994 23.9177 69.4007 23.9191C69.4021 23.9205 69.4048 23.9232 69.4062 23.9246C69.4076 23.926 69.4103 23.9287 69.4117 23.9301C69.4131 23.9315 69.4158 23.9342 69.4172 23.9356C69.4186 23.937 69.4213 23.9397 69.4227 23.9411C69.4241 23.9425 69.4268 23.9452 69.4282 23.9466C69.4296 23.9479 69.4323 23.9507 69.4337 23.9521C69.4351 23.9534 69.4378 23.9562 69.4392 23.9576C69.4406 23.9589 69.4433 23.9617 69.4447 23.9631C69.4461 23.9644 69.4488 23.9672 69.4502 23.9686C69.4516 23.9699 69.4543 23.9727 69.4557 23.9741C69.4571 23.9754 69.4598 23.9782 69.4612 23.9796C69.4626 23.9809 69.4653 23.9837 69.4667 23.9851C69.4681 23.9864 69.4708 23.9892 69.4722 23.9905C69.4736 23.9919 69.4763 23.9947 69.4777 23.996C69.4791 23.9974 69.4818 24.0002 69.4832 24.0015C69.4845 24.0029 69.4873 24.0057 69.4887 24.007C69.49 24.0084 69.4928 24.0112 69.4942 24.0125C69.4955 24.0139 69.4983 24.0167 69.4997 24.018C69.501 24.0194 69.5038 24.0222 69.5052 24.0235C69.5065 24.0249 69.5093 24.0277 69.5107 24.029C69.512 24.0304 69.5148 24.0331 69.5162 24.0345C69.5175 24.0359 69.5203 24.0386 69.5217 24.04C69.523 24.0414 69.5258 24.0441 69.5272 24.0455C69.5285 24.0469 69.5313 24.0496 69.5326 24.051C69.534 24.0524 69.5368 24.0551 69.5381 24.0565C69.5395 24.0579 69.5423 24.0606 69.5436 24.062C69.545 24.0634 69.5478 24.0661 69.5491 24.0675C69.5505 24.0689 69.5533 24.0716 69.5546 24.073C69.556 24.0744 69.5588 24.0771 69.5601 24.0785C69.5615 24.0799 69.5643 24.0826 69.5656 24.084C69.567 24.0854 69.5698 24.0881 69.5711 24.0895C69.5725 24.0909 69.5752 24.0936 69.5766 24.095C69.578 24.0964 69.5807 24.0991 69.5821 24.1005C69.5835 24.1019 69.5862 24.1046 69.5876 24.106C69.589 24.1074 69.5917 24.1101 69.5931 24.1115C69.5945 24.1129 69.5972 24.1156 69.5986 24.117C69.6 24.1183 69.6027 24.1211 69.6041 24.1225C69.6055 24.1238 69.6082 24.1266 69.6096 24.128C69.611 24.1293 69.6137 24.1321 69.6151 24.1335C69.6165 24.1348 69.6192 24.1376 69.6206 24.139C69.622 24.1403 69.6247 24.1431 69.6261 24.1445C69.6275 24.1458 69.6302 24.1486 69.6316 24.15C69.633 24.1513 69.6357 24.1541 69.6371 24.1555C69.6385 24.1568 69.6412 24.1596 69.6426 24.1609C69.644 24.1623 69.6467 24.1651 69.6481 24.1664C69.6495 24.1678 69.6522 24.1706 69.6536 24.1719C69.655 24.1733 69.6577 24.1761 69.6591 24.1774C69.6604 24.1788 69.6632 24.1816 69.6646 24.1829C69.6659 24.1843 69.6687 24.1871 69.6701 24.1884C69.6714 24.1898 69.6742 24.1926 69.6756 24.1939C69.6769 24.1953 69.6797 24.1981 69.6811 24.1994C69.6824 24.2008 69.6852 24.2035 69.6866 24.2049C69.6879 24.2063 69.6907 24.209 69.6921 24.2104C69.6934 24.2118 69.6962 24.2145 69.6976 24.2159C69.6989 24.2173 69.7017 24.22 69.703 24.2214C69.7044 24.2228 69.7072 24.2255 69.7085 24.2269C69.7099 24.2283 69.7127 24.231 69.714 24.2324C69.7154 24.2338 69.7182 24.2365 69.7195 24.2379C69.7209 24.2393 69.7237 24.242 69.725 24.2434C69.7264 24.2448 69.7292 24.2475 69.7305 24.2489C69.7319 24.2503 69.7347 24.253 69.736 24.2544C69.7374 24.2558 69.7402 24.2585 69.7415 24.2599C69.7429 24.2613 69.7456 24.264 69.747 24.2654C69.7484 24.2668 69.7511 24.2695 69.7525 24.2709C69.7539 24.2723 69.7566 24.275 69.758 24.2764C69.7594 24.2778 69.7621 24.2805 69.7635 24.2819C69.7649 24.2833 69.7676 24.286 69.769 24.2874C69.7704 24.2887 69.7731 24.2915 69.7745 24.2929C69.7759 24.2942 69.7786 24.297 69.78 24.2984C69.7814 24.2997 69.7841 24.3025 69.7855 24.3039C69.7869 24.3052 69.7896 24.308 69.791 24.3094C69.7924 24.3107 69.7951 24.3135 69.7965 24.3149C69.7979 24.3162 69.8006 24.319 69.802 24.3204C69.8034 24.3217 69.8061 24.3245 69.8075 24.3259C69.8089 24.3272 69.8116 24.33 69.813 24.3313C69.8144 24.3327 69.8171 24.3355 69.8185 24.3368C69.8199 24.3382 69.8226 24.341 69.824 24.3423C69.8254 24.3437 69.8281 24.3465 69.8295 24.3478C69.8309 24.3492 69.8336 24.352 69.835 24.3533C69.8363 24.3547 69.8391 24.3575 69.8405 24.3588C69.8418 24.3602 69.8446 24.363 69.846 24.3643C69.8473 24.3657 69.8501 24.3685 69.8515 24.3698C69.8528 24.3712 69.8556 24.3739 69.857 24.3753C69.8583 24.3767 69.8611 24.3794 69.8625 24.3808C69.8638 24.3822 69.8666 24.3849 69.868 24.3863C69.8693 24.3877 69.8721 24.3904 69.8734 24.3918C69.8748 24.3932 69.8776 24.3959 69.8789 24.3973C69.8803 24.3987 69.8831 24.4014 69.8844 24.4028C69.8858 24.4042 69.8886 24.4069 69.8899 24.4083C69.8913 24.4097 69.8941 24.4124 69.8954 24.4138C69.8968 24.4152 69.8996 24.4179 69.9009 24.4193C69.9023 24.4207 69.9051 24.4234 69.9064 24.4248C69.9078 24.4262 69.9106 24.4289 69.9119 24.4303C69.9133 24.4317 69.916 24.4344 69.9174 24.4358C69.9188 24.4372 69.9215 24.4399 69.9229 24.4413C69.9243 24.4427 69.927 24.4454 69.9284 24.4468C69.9298 24.4482 69.9325 24.4509 69.9339 24.4523C69.9353 24.4537 69.938 24.4564 69.9394 24.4578C69.9408 24.4591 69.9435 24.4619 69.9449 24.4633C69.9463 24.4646 69.949 24.4674 69.9504 24.4688C69.9518 24.4701 69.9545 24.4729 69.9559 24.4743C69.9573 24.4756 69.96 24.4784 69.9614 24.4798C69.9628 24.4811 69.9655 24.4839 69.9669 24.4853C69.9683 24.4866 69.971 24.4894 69.9724 24.4908C69.9738 24.4921 69.9765 24.4949 69.9779 24.4963C69.9793 24.4976 69.982 24.5004 69.9834 24.5018C69.9848 24.5031 69.9875 24.5059 69.9889 24.5072C69.9903 24.5086 69.993 24.5114 69.9944 24.5127C69.9958 24.5141 69.9985 24.5169 69.9999 24.5182C70.0012 24.5196 70.004 24.5224 70.0054 24.5237C70.0067 24.5251 70.0095 24.5279 70.0109 24.5292C70.0122 24.5306 70.015 24.5334 70.0164 24.5347C70.0177 24.5361 70.0205 24.5389 70.0219 24.5402C70.0232 24.5416 70.026 24.5443 70.0274 24.5457C70.0287 24.5471 70.0315 24.5498 70.0329 24.5512C70.0342 24.5526 70.037 24.5553 70.0384 24.5567C70.0397 24.5581 70.0425 24.5608 70.0439 24.5622C70.0452 24.5636 70.048 24.5663 70.0493 24.5677C70.0507 24.5691 70.0535 24.5718 70.0548 24.5732C70.0562 24.5746 70.059 24.5773 70.0603 24.5787C70.0617 24.5801 70.0645 24.5828 70.0658 24.5842C70.0672 24.5856 70.07 24.5883 70.0713 24.5897C70.0727 24.5911 70.0755 24.5938 70.0768 24.5952C70.0782 24.5966 70.081 24.5993 70.0823 24.6007C70.0837 24.6021 70.0865 24.6048 70.0878 24.6062C70.0892 24.6076 70.0919 24.6103 70.0933 24.6117C70.0947 24.6131 70.0974 24.6158 70.0988 24.6172C70.1002 24.6186 70.1029 24.6213 70.1043 24.6227C70.1057 24.6241 70.1084 24.6268 70.1098 24.6282C70.1112 24.6296 70.1139 24.6323 70.1153 24.6337C70.1167 24.635 70.1194 24.6378 70.1208 24.6392C70.1222 24.6405 70.1249 24.6433 70.1263 24.6447C70.1277 24.646 70.1304 24.6488 70.1318 24.6502C70.687 25.2067 70.9879 25.946 71.0278 26.8503C72.1807 25.8759 73.2856 24.8467 74.3204 23.7487H70.004C69.7319 23.7487 69.4736 23.7308 69.229 23.6992L69.2468 23.7171Z" fill="#ECF8F7"/>
<path d="M74.151 2.84734C69.0596 0.399892 63.266 0.0329808 57.7101 0C43.4088 0.105813 28.1594 3.34892 16.0664 11.2574C16.6848 11.2643 17.2317 11.3935 17.7003 11.6436C17.9133 11.399 18.2239 11.2561 18.5537 11.2561H21.1551C21.6017 11.2561 22.0291 11.3605 22.4097 11.5474C26.8745 9.47647 31.2568 7.77384 34.7266 6.47797C43.942 3.16478 53.7717 0.476847 63.6535 1.44016C66.5737 1.73836 69.4774 2.33889 72.1392 3.56604C75.0003 4.88115 77.6978 7.18706 77.8998 10.5181C77.996 11.9349 77.6332 13.3586 77.0533 14.6476C76.7304 15.3759 76.336 16.0713 75.9004 16.7377C75.4593 17.3712 74.9893 17.9896 74.4918 18.5929C74.4946 18.5957 74.4987 18.5998 74.5014 18.6025C74.5056 18.6066 74.5083 18.6094 74.5124 18.6135C74.5166 18.6176 74.5193 18.6204 74.5234 18.6245C74.5276 18.6286 74.5303 18.6314 74.5344 18.6355C74.5386 18.6396 74.5413 18.6424 74.5454 18.6465C74.5495 18.6506 74.5523 18.6534 74.5564 18.6575C74.5605 18.6616 74.5633 18.6644 74.5674 18.6685C74.5715 18.6726 74.5743 18.6754 74.5784 18.6795C74.5825 18.6836 74.5853 18.6863 74.5894 18.6905C74.5935 18.6946 74.5963 18.6973 74.6004 18.7015C74.6045 18.7056 74.6073 18.7083 74.6114 18.7125C74.6155 18.7166 74.6183 18.7193 74.6224 18.7235C74.6265 18.7276 74.6292 18.7303 74.6334 18.7344C74.6375 18.7386 74.6402 18.7413 74.6444 18.7454C74.6485 18.7496 74.6512 18.7523 74.6554 18.7564L74.6664 18.7674C74.6664 18.7674 74.6732 18.7743 74.6773 18.7784C74.6815 18.7825 74.6842 18.7853 74.6883 18.7894C74.6925 18.7935 74.6952 18.7963 74.6993 18.8004C74.7035 18.8045 74.7062 18.8073 74.7103 18.8114C74.7145 18.8155 74.7172 18.8183 74.7213 18.8224C74.7254 18.8265 74.7282 18.8293 74.7323 18.8334C74.7364 18.8375 74.7392 18.8403 74.7433 18.8444C74.7474 18.8485 74.7502 18.8513 74.7543 18.8554C74.7584 18.8595 74.7612 18.8622 74.7653 18.8664C74.7694 18.8705 74.7722 18.8732 74.7763 18.8774C74.7804 18.8815 74.7832 18.8842 74.7873 18.8884C74.7914 18.8925 74.7942 18.8952 74.7983 18.8993C74.8024 18.9035 74.8052 18.9062 74.8093 18.9103C74.8134 18.9145 74.8161 18.9172 74.8203 18.9213C74.8244 18.9255 74.8271 18.9282 74.8313 18.9323C74.8354 18.9365 74.8381 18.9392 74.8423 18.9433C74.8464 18.9474 74.8491 18.9502 74.8532 18.9543C74.8574 18.9584 74.8601 18.9612 74.8642 18.9653C74.8684 18.9694 74.8711 18.9722 74.8752 18.9763C74.8794 18.9804 74.8821 18.9832 74.8862 18.9873C74.8904 18.9914 74.8931 18.9942 74.8972 18.9983C74.9013 19.0024 74.9041 19.0052 74.9082 19.0093C74.9123 19.0134 74.9151 19.0162 74.9192 19.0203C74.9233 19.0244 74.9261 19.0272 74.9302 19.0313C74.9343 19.0354 74.9371 19.0381 74.9412 19.0423C74.9453 19.0464 74.9481 19.0491 74.9522 19.0533C74.9563 19.0574 74.9591 19.0601 74.9632 19.0643C74.9673 19.0684 74.97 19.0711 74.9742 19.0752C74.9783 19.0794 74.981 19.0821 74.9852 19.0862C74.9893 19.0904 74.992 19.0931 74.9962 19.0972C75.0003 19.1014 75.003 19.1041 75.0071 19.1082C75.0113 19.1124 75.014 19.1151 75.0181 19.1192C75.0223 19.1233 75.025 19.1261 75.0291 19.1302C75.0333 19.1343 75.036 19.1371 75.0401 19.1412C75.0443 19.1453 75.047 19.1481 75.0511 19.1522C75.0552 19.1563 75.058 19.1591 75.0621 19.1632C75.0662 19.1673 75.069 19.1701 75.0731 19.1742C75.0772 19.1783 75.08 19.1811 75.0841 19.1852C75.0882 19.1893 75.091 19.1921 75.0951 19.1962C75.0992 19.2003 75.102 19.203 75.1061 19.2072C75.1102 19.2113 75.113 19.214 75.1171 19.2182C75.1212 19.2223 75.124 19.225 75.1281 19.2292C75.1322 19.2333 75.135 19.236 75.1391 19.2402C75.1432 19.2443 75.146 19.247 75.1501 19.2511C75.1542 19.2553 75.1569 19.258 75.1611 19.2621C75.1652 19.2663 75.1679 19.269 75.1721 19.2731C75.1762 19.2773 75.1789 19.28 75.1831 19.2841C75.1872 19.2882 75.1899 19.291 75.194 19.2951C75.1982 19.2992 75.2009 19.302 75.205 19.3061C75.2092 19.3102 75.2119 19.313 75.216 19.3171C75.2202 19.3212 75.2229 19.324 75.227 19.3281C75.2311 19.3322 75.2339 19.335 75.238 19.3391C75.2421 19.3432 75.2449 19.346 75.249 19.3501C75.2531 19.3542 75.2559 19.357 75.26 19.3611C75.2641 19.3652 75.2669 19.368 75.271 19.3721C75.2751 19.3762 75.2779 19.3789 75.282 19.3831C75.2861 19.3872 75.2889 19.3899 75.293 19.3941C75.2971 19.3982 75.2999 19.4009 75.304 19.4051C75.3081 19.4092 75.3109 19.4119 75.315 19.416C75.3191 19.4202 75.3218 19.4229 75.326 19.427C75.3301 19.4312 75.3328 19.4339 75.337 19.438C75.3411 19.4422 75.3438 19.4449 75.348 19.449C75.3521 19.4532 75.3548 19.4559 75.359 19.46C75.3631 19.4641 75.3658 19.4669 75.3699 19.471C75.3741 19.4751 75.3768 19.4779 75.3809 19.482C75.3851 19.4861 75.3878 19.4889 75.3919 19.493C75.3961 19.4971 75.3988 19.4999 75.4029 19.504C75.407 19.5081 75.4098 19.5109 75.4139 19.515C75.418 19.5191 75.4208 19.5219 75.4249 19.526C75.429 19.5301 75.4318 19.5329 75.4359 19.537C75.44 19.5411 75.4428 19.5438 75.4469 19.548C75.451 19.5521 75.4538 19.5548 75.4579 19.559C75.462 19.5631 75.4648 19.5658 75.4689 19.57C75.9567 20.0551 76.2687 20.7147 76.3017 21.4471C76.5985 21.0665 76.8884 20.6789 77.1674 20.2818C78.3203 18.6135 79.2933 16.7955 79.8471 14.8358C81.3477 9.49159 78.9855 5.20684 74.1332 2.8281L74.151 2.84734Z" fill="#ECF8F7"/>
<path d="M8.52215 21.5002H16.2561C16.9364 21.5002 17.4627 21.3133 17.8365 20.9409C18.2102 20.5685 18.3971 20.0367 18.3971 19.3468V18.0578C18.3971 16.7578 17.6826 16.0515 16.2548 15.9388L10.5422 15.565C10.3718 15.554 10.2536 15.5169 10.1849 15.4537C10.1176 15.3905 10.0832 15.2723 10.0832 15.1005V14.9288C10.0832 14.757 10.1148 14.6388 10.1767 14.5756C10.2385 14.5124 10.3608 14.4808 10.5422 14.4808H14.2828C18.158 14.4808 18.158 15.3135 18.158 15.3135V14.566C18.158 13.8748 17.9684 13.3388 17.5891 12.9595C17.2098 12.5803 16.6849 12.3906 16.017 12.3906H8.69117C8.01095 12.3906 7.48188 12.5775 7.10123 12.9513C6.72195 13.3251 6.53231 13.8528 6.53231 14.5316V15.62C6.53231 16.9461 7.25239 17.6538 8.69117 17.7445L14.3859 18.1169C14.5672 18.1403 14.6882 18.1787 14.7514 18.2365C14.8132 18.2928 14.8448 18.4069 14.8448 18.5773V18.951C14.8448 19.1324 14.8132 19.2547 14.7514 19.3166C14.6895 19.3784 14.5672 19.41 14.3859 19.41H10.2385C6.3674 19.41 6.36328 18.4577 6.36328 18.4577V19.3248C6.36328 20.0051 6.55567 20.5382 6.94182 20.923C7.32659 21.3078 7.85429 21.5016 8.52215 21.5016V21.5002Z" fill="#ECF8F7"/>
<path d="M33.1206 13.5795L31.5224 18.6723L29.7126 13.5246C29.4735 12.8443 28.8304 12.3881 28.1089 12.3881H27.786C27.0618 12.3881 26.4173 12.8471 26.1795 13.5301L24.3999 18.6544L22.7729 13.5685C22.5475 12.8649 21.8934 12.3867 21.1541 12.3867H18.5527L22.1669 20.4904C22.4403 21.1033 23.0491 21.4977 23.7197 21.4977H24.5923C25.2794 21.4977 25.8992 21.084 26.163 20.4491L27.8863 16.2949L29.6411 20.4574C29.9064 21.0868 30.5234 21.4977 31.2077 21.4977H32.0185C32.6891 21.4977 33.2979 21.1033 33.5713 20.4904L37.1855 12.3867H34.7449C34.0015 12.3867 33.346 12.8691 33.1234 13.5781L33.1206 13.5795Z" fill="#ECF8F7"/>
<path d="M47.588 17.4369C48.6682 17.4369 49.5435 16.5615 49.5435 15.4814C49.5435 14.4013 49.3003 13.6056 48.8124 13.1178C48.3246 12.63 47.5372 12.3867 46.4502 12.3867H40.4326C39.3442 12.3867 38.5568 12.63 38.069 13.1178C37.5811 13.6056 37.3379 14.393 37.3379 15.4814V18.4057C37.3379 19.4941 37.5811 20.2815 38.069 20.7693C38.5554 21.2572 39.3442 21.5004 40.4326 21.5004H46.8583C47.7763 21.5004 48.4538 21.2847 48.8894 20.8545C49.325 20.4244 49.5435 19.7442 49.5435 18.8152V18.0333C49.5435 18.0333 49.5435 18.9348 47.588 18.9348H41.8082C41.4564 18.9348 41.2159 18.8702 41.0853 18.7396C40.9548 18.6091 40.8902 18.3686 40.8902 18.0168V17.4383H47.588V17.4369ZM40.8902 15.4814C40.8902 15.1296 40.9548 14.8919 41.0853 14.7668C41.2159 14.6418 41.4564 14.5799 41.8082 14.5799H45.2079C45.5597 14.5799 45.8002 14.6418 45.9308 14.7668C46.0613 14.8919 46.1259 15.1296 46.1259 15.4814V15.7027H40.8902V15.4814Z" fill="#ECF8F7"/>
<path d="M66.202 10.3496V10.689C66.202 11.6276 65.4407 12.3889 64.5021 12.3889H63.8906V15.0755H66.202V18.816C66.202 19.745 66.4205 20.4252 66.8561 20.8554C67.2918 21.2869 67.9692 21.5012 68.8872 21.5012H74.0556V20.4637C74.0556 19.5251 73.2943 18.7638 72.3557 18.7638H70.5033C70.2202 18.7638 70.025 18.7102 69.9165 18.6017C69.8093 18.4945 69.7543 18.298 69.7543 18.0149V15.0741H72.3557C73.2943 15.0741 74.0556 14.3128 74.0556 13.3742V12.3889H69.7543V10.3496H66.202Z" fill="#ECF8F7"/>
<path d="M61.0861 17.4369C62.1662 17.4369 63.0416 16.5615 63.0416 15.4814C63.0416 14.4013 62.7983 13.6056 62.3105 13.1178C61.8227 12.63 61.0352 12.3867 59.9483 12.3867H53.9306C52.8423 12.3867 52.0549 12.63 51.567 13.1178C51.0792 13.6056 50.8359 14.393 50.8359 15.4814V18.4057C50.8359 19.4941 51.0792 20.2815 51.567 20.7693C52.0535 21.2572 52.8423 21.5004 53.9306 21.5004H60.3564C61.2743 21.5004 61.9518 21.2847 62.3875 20.8545C62.8231 20.4244 63.0416 19.7442 63.0416 18.8152V18.0333C63.0416 18.0333 63.0416 18.9348 58.8764 18.9348H55.3062C54.9544 18.9348 54.7139 18.8702 54.5834 18.7396C54.4528 18.6091 54.3882 18.3686 54.3882 18.0168V17.4383H61.0861V17.4369ZM54.3882 15.4814C54.3882 15.1296 54.4528 14.8919 54.5834 14.7668C54.7139 14.6418 54.9544 14.5799 55.3062 14.5799H58.706C59.0578 14.5799 59.2983 14.6418 59.4288 14.7668C59.5593 14.8919 59.6239 15.1296 59.6239 15.4814V15.7027H54.3882V15.4814Z" fill="#ECF8F7"/>
<path d="M9.40585 24.992C9.40585 24.3159 8.85755 23.7676 8.18144 23.7676H6.49805V32.8799H10.0682V27.6442L10.442 27.3213C10.7141 27.0725 11.1566 26.9475 11.7681 26.9475H13.1286C14.0671 26.9475 14.8284 26.1862 14.8284 25.2476V23.769H12.8056C11.944 23.769 11.3036 23.8432 10.8845 23.9902C10.4654 24.1372 9.97202 24.4725 9.40585 24.9934V24.992Z" fill="#ECF8F7"/>
<path d="M18.4498 23.7676H16.9368C16.3547 23.7676 15.8828 24.2395 15.8828 24.8216V31.8259C15.8828 32.408 16.3547 32.8799 16.9368 32.8799H18.4498C19.0319 32.8799 19.5038 32.408 19.5038 31.8259V24.8216C19.5038 24.2395 19.0319 23.7676 18.4498 23.7676Z" fill="#ECF8F7"/>
<path d="M31.108 27.7802C32.206 27.7802 33.0223 26.7537 32.7626 25.6873C32.6512 25.2325 32.4685 24.7982 32.1689 24.4987C31.6811 24.0108 30.8937 23.7676 29.8053 23.7676H24.0927C23.0044 23.7676 22.217 24.0108 21.7291 24.4987C21.2413 24.9865 20.998 25.7739 20.998 26.8623V29.7866C20.998 30.8749 21.2413 31.6623 21.7291 32.1502C22.217 32.638 23.0044 32.8813 24.0927 32.8813H29.8053C30.8937 32.8813 31.6811 32.638 32.1689 32.1502C32.6554 31.6623 32.9 30.8749 32.9 29.7866V28.9538C32.9 28.9538 32.8904 30.1439 29.4837 30.1439H25.4724C25.1206 30.1439 24.8802 30.082 24.7496 29.957C24.6191 29.8319 24.5545 29.5942 24.5545 29.2424V27.4065C24.5545 27.0547 24.6191 26.8169 24.7496 26.6919C24.8802 26.5668 25.1206 26.505 25.4724 26.505H28.5658C28.9176 26.505 29.158 26.5668 29.2886 26.6919C29.5483 26.9406 29.4837 27.7802 29.4837 27.7802H31.108Z" fill="#ECF8F7"/>
<path d="M34.9225 24.4973C34.4346 24.9851 34.1914 25.7725 34.1914 26.8609V29.7852C34.1914 30.8736 34.4346 31.661 34.9225 32.1488C35.4089 32.6367 36.1977 32.8799 37.2861 32.8799H43.7119C44.6298 32.8799 45.3073 32.6641 45.7429 32.234C46.1785 31.8039 46.397 31.1237 46.397 30.1947V29.4128C46.397 29.4128 46.397 30.3143 44.4415 30.3143H38.6617C38.3099 30.3143 38.0694 30.2497 37.9388 30.1191C37.8083 29.9886 37.7437 29.7481 37.7437 29.3963V28.8178H44.4415C45.5217 28.8178 46.397 27.9424 46.397 26.8623C46.397 25.7822 46.1538 24.9865 45.666 24.4987C45.1781 24.0108 44.3907 23.7676 43.3037 23.7676H37.2861C36.1977 23.7676 35.4103 24.0108 34.9225 24.4987V24.4973ZM37.7451 26.8609C37.7451 26.5091 37.8097 26.2714 37.9402 26.1463C38.0708 26.0213 38.3113 25.9594 38.663 25.9594H42.0628C42.4146 25.9594 42.6551 26.0213 42.7856 26.1463C42.9162 26.2714 42.9808 26.5091 42.9808 26.8609V27.0821H37.7451V26.8609Z" fill="#ECF8F7"/>
<path d="M49.5076 23.7676H47.8242V32.8799H51.3944V27.6442L51.7682 27.3213C52.0403 27.0725 52.4827 26.9475 53.0943 26.9475H54.4547C55.3933 26.9475 56.1546 26.1862 56.1546 25.2476V23.769H54.1318C53.2702 23.769 52.6298 23.8432 52.2107 23.9902C51.7915 24.1372 51.2982 24.4725 50.732 24.9934C50.732 24.3173 50.1837 23.769 49.5076 23.769V23.7676Z" fill="#ECF8F7"/>
<path d="M66.8817 27.3177L61.1692 26.9439C60.9988 26.9329 60.8806 26.8958 60.8119 26.8326C60.7445 26.7694 60.7102 26.6512 60.7102 26.4795V26.3077C60.7102 26.1359 60.7418 26.0177 60.8036 25.9545C60.8655 25.8913 60.9878 25.8597 61.1692 25.8597H64.9097C68.785 25.8597 68.785 26.6925 68.785 26.6925V25.9449C68.785 25.2537 68.5953 24.7177 68.2161 24.3384C67.8368 23.9592 67.3118 23.7695 66.644 23.7695H59.3181C58.6379 23.7695 58.1088 23.9564 57.7282 24.3302C57.3489 24.704 57.1593 25.2317 57.1593 25.9105V26.9989C57.1593 28.325 57.8793 29.0327 59.3181 29.1234L65.0128 29.4958C65.1942 29.5192 65.3151 29.5577 65.3783 29.6154C65.4402 29.6717 65.4718 29.7858 65.4718 29.9562V30.33C65.4718 30.5113 65.4402 30.6337 65.3783 30.6955C65.3165 30.7573 65.1942 30.7889 65.0128 30.7889H60.8655C56.9944 30.7889 56.9902 29.8366 56.9902 29.8366V30.7037C56.9902 31.384 57.1826 31.9172 57.5688 32.3019C57.9536 32.6867 58.4812 32.8805 59.1491 32.8805H66.8831C67.5633 32.8805 68.0896 32.6936 68.4634 32.3212C68.8372 31.9488 69.0241 31.4169 69.0241 30.7271V29.4381C69.0241 28.1381 68.3095 27.4318 66.8817 27.3191V27.3177Z" fill="#ECF8F7"/>
</svg>
