<svg width="50" height="50" viewBox="0 0 50 50" fill="none" xmlns="http://www.w3.org/2000/svg">
<path d="M44.7909 37.5007L30.9517 25.0007M19.047 25.0007L5.20775 37.5007M4.16602 14.584L21.1763 26.4912C22.5537 27.4554 23.2424 27.9375 23.9916 28.1242C24.6533 28.2892 25.3454 28.2892 26.0071 28.1242C26.7563 27.9375 27.445 27.4554 28.8224 26.4912L45.8327 14.584M14.166 41.6673H35.8327C39.333 41.6673 41.0832 41.6673 42.4201 40.9861C43.5961 40.3869 44.5523 39.4308 45.1515 38.2548C45.8327 36.9178 45.8327 35.1676 45.8327 31.6673V18.334C45.8327 14.8337 45.8327 13.0835 45.1515 11.7465C44.5523 10.5705 43.5961 9.6144 42.4201 9.01519C41.0832 8.33398 39.333 8.33398 35.8327 8.33398H14.166C10.6657 8.33398 8.91552 8.33398 7.57857 9.01519C6.40256 9.6144 5.44643 10.5705 4.84722 11.7465C4.16602 13.0835 4.16602 14.8337 4.16602 18.334V31.6673C4.16602 35.1676 4.16602 36.9178 4.84722 38.2548C5.44643 39.4308 6.40256 40.3869 7.57857 40.9861C8.91552 41.6673 10.6657 41.6673 14.166 41.6673Z" stroke="#ABA5FF" stroke-width="3" stroke-linecap="round" stroke-linejoin="round"/>
</svg>
