<svg width="102" height="32" viewBox="0 0 102 32" fill="none" xmlns="http://www.w3.org/2000/svg">
<g clip-path="url(#clip0_151_171)">
<path d="M17.2934 20.1477L17.9456 19.3556H15.3454H13.2056L14.6251 16.647H15.3454H18.4912H18.7768L19.2244 15.8422H18.4614H15.3454H15.0556L15.3454 15.3439L15.7248 14.6966L16.4239 13.4956H17.3574H18.3719H20.7589L21.1979 12.6992H20.8569H18.342H17.3574H12.7495L12.724 12.7461L12.3148 13.4956L9.96183 17.7884L9.09653 19.3641L8.66602 20.1477H12.7325H15.3454H17.2934Z" fill="white"/>
<path d="M10.997 14.3185C10.6006 14.2418 10.0891 14.1992 9.42412 14.1992H6.41475L3.97656 18.6496H6.67476L7.55711 17.0142H8.43946C8.86146 17.0142 9.22378 17.0015 9.53921 16.9759L10.9927 14.3227L10.997 14.3185ZM9.33886 15.2639L9.01065 15.8857C8.98507 15.9368 8.95097 15.9794 8.91687 16.0177C8.91687 16.0177 8.91687 16.0177 8.91261 16.0219C8.87851 16.056 8.83588 16.0858 8.78899 16.1114C8.78899 16.1114 8.78899 16.1114 8.78473 16.1114C8.73358 16.1369 8.67817 16.154 8.60997 16.1667C8.60997 16.1667 8.60997 16.1667 8.6057 16.1667C8.5375 16.1795 8.46078 16.188 8.367 16.188C8.34142 16.188 8.31159 16.188 8.28175 16.188H8.02173L8.69522 14.953H8.93818C9.31755 14.953 9.45822 15.0254 9.3346 15.2596L9.33886 15.2639Z" fill="white"/>
<path d="M9.15576 9.56556V8.38164C9.15576 7.78968 8.92558 7.64062 8.56327 7.64062H8.36719V10.4343H8.58032C9.00657 10.4343 9.15576 10.2214 9.15576 9.56131V9.56556Z" fill="white"/>
<path d="M19.0456 15.085H20.5077L19.2289 17.4103H18.1889L17.7498 18.5985L17.737 18.6325L17.7285 18.6496H19.5103H20.6867C21.0661 18.0959 21.3602 17.7765 21.8973 16.9929H22.055C21.7097 17.8276 21.6245 18.2493 21.4838 18.6496H24.3738L27.818 14.1992H25.188C25.0516 14.4718 24.0627 16.2988 23.6833 16.9972H23.4915C23.8197 16.269 24.3397 14.838 24.6339 14.1992H22.6773C22.0721 15.068 21.1727 16.3456 20.6697 17.0313H20.512C20.7549 16.6522 21.7907 14.7529 22.0849 14.1992H19.3696L19.0414 15.0808L19.0456 15.085Z" fill="white"/>
<path d="M96.3467 0H29.8251H2.13128H0V32H32.0289H34.5694H101.091V0H96.3467ZM17.7664 24.1427L17.4722 26.2976H12.7323V20.9103H8.37167V26.2976H5.75446V19.3644H2.77919L5.75446 13.943V5.70242H9.02811C10.9377 5.70242 11.8116 6.83524 11.8116 8.6963V9.42028C11.8116 11.4602 11.023 12.5462 8.98122 12.5462H8.37167V13.4959H11.4535L12.306 11.9414H12.7365V5.70242H17.4595V7.85733H15.3537V11.9414H18.3205L18.086 5.70242H20.8013C20.8098 6.26031 20.8311 8.92201 20.8567 11.9414H21.2446C21.2787 9.10514 21.3128 6.55842 21.3597 5.70242H23.2523C23.2864 6.46899 23.3034 9.93559 23.3333 13.4959H23.7339C23.7638 9.70562 23.7894 6.04312 23.7808 5.70242H26.283L25.9164 13.4959H29.2582L28.3759 14.633L25.6947 18.0953L25.3068 26.2976H22.5106C22.4466 25.3096 22.3316 23.9468 22.2293 21.8898H22.0801C21.965 23.8147 21.8158 24.9305 21.7348 26.2976H18.8533L18.6061 19.7477L17.6513 20.9103H15.3452V24.1427H17.7664ZM98.9255 29.8366H32.0289V2.16343H98.9255V29.8366Z" fill="white"/>
<path d="M43.8831 13.7011C44.2369 12.0231 43.7723 10.6816 41.5344 10.6816H38.751L36.4961 21.3199H38.9897L39.8038 17.4062H40.618C42.647 17.4062 43.2736 16.5587 43.6572 14.753L43.8788 13.6968L43.8831 13.7011ZM41.4535 13.2241L41.1508 14.7104C41.04 15.2555 40.878 15.4429 40.4773 15.4429H40.2386L40.861 12.4873H41.0826C41.4364 12.4873 41.56 12.6619 41.4492 13.2241H41.4535Z" fill="white"/>
<path d="M47.3609 12.696H49.5348L49.9654 10.6816H45.2979L43.043 21.3199H47.7787L48.4181 19.3055H45.9543L46.4658 16.7844H48.5459L48.9765 14.753H46.8963L47.3609 12.696Z" fill="white"/>
<path d="M56.3945 10.6816C56.2666 11.3375 55.3544 15.6984 55.0049 17.3763H54.8302C55.1328 15.6345 55.6145 12.2148 55.883 10.6816H54.0757C53.5173 12.7599 52.6861 15.8091 52.2215 17.453H52.0765C52.2982 16.5416 53.2615 12.0061 53.5301 10.6816H51.0194L49.502 21.3199H52.2343C52.588 19.9955 52.8566 19.2289 53.351 17.3593H53.496C53.1763 19.3566 53.0953 20.3617 52.9674 21.3199H55.6358L58.8156 10.6816H56.386H56.3945Z" fill="white"/>
<path d="M64.8128 13.7011C65.1666 12.0231 64.702 10.6816 62.4641 10.6816H59.6807L57.4258 21.3199H59.9194L60.7335 17.4062H61.5477C63.5767 17.4062 64.2033 16.5587 64.5869 14.753L64.8085 13.6968L64.8128 13.7011ZM62.3831 13.2241L62.0805 14.7104C61.9697 15.2555 61.8077 15.4429 61.407 15.4429H61.1683L61.7906 12.4873H62.0123C62.3661 12.4873 62.4897 12.6619 62.3789 13.2241H62.3831Z" fill="white"/>
<path d="M68.2903 12.696H70.4642L70.899 10.6816H66.2272L63.9766 21.3199H68.708L69.3474 19.3055H66.8836L67.3951 16.7844H69.4753L69.9058 14.753H67.8257L68.2903 12.696Z" fill="white"/>
<path d="M77.3222 10.6816C77.1944 11.3375 76.2822 15.6984 75.9327 17.3763H75.7579C76.0605 15.6345 76.5422 12.2148 76.8107 10.6816H75.0034C74.445 12.7599 73.6138 15.8091 73.1492 17.453H73.0043C73.2259 16.5416 74.1893 12.0061 74.4578 10.6816H71.9472L70.4297 21.3199H73.162C73.5158 19.9955 73.7843 19.2289 74.2788 17.3593H74.4237C74.104 19.3566 74.023 20.3617 73.8952 21.3199H76.5635L79.7434 10.6816H77.3137H77.3222Z" fill="white"/>
<path d="M77.5918 21.3191H80.0556L80.6949 18.2656H78.2312L77.5918 21.3191Z" fill="white"/>
<path d="M86.3118 10.68H83.5283L81.2734 21.3183H83.767L84.5812 17.4046H85.3953C87.4243 17.4046 88.0509 16.5571 88.4345 14.7514L88.6562 13.6952C89.01 12.0173 88.5454 10.6758 86.3075 10.6758L86.3118 10.68ZM86.2308 13.2182L85.9282 14.7045C85.8173 15.2496 85.6553 15.437 85.2547 15.437H85.016L85.6383 12.4815H85.86C86.2137 12.4815 86.3374 12.6561 86.2265 13.2182H86.2308Z" fill="white"/>
<path d="M89.7225 12.696H91.0353L89.2109 21.3199H91.6918L93.5119 12.696H94.8418L95.2723 10.6816H90.1572L89.7225 12.696Z" fill="white"/>
</g>
<defs>
<clipPath id="clip0_151_171">
<rect width="101.091" height="32" fill="white"/>
</clipPath>
</defs>
</svg>
