<svg width="50" height="50" viewBox="0 0 50 50" fill="none" xmlns="http://www.w3.org/2000/svg">
<path d="M33.3339 18.7493V12.4993C33.3339 7.89698 29.603 4.16602 25.0006 4.16602C20.3982 4.16602 16.6673 7.89698 16.6673 12.4993V18.7493M7.48395 21.5659L6.23395 34.8993C5.87854 38.6903 5.70083 40.5858 6.32988 42.0499C6.88248 43.3361 7.85085 44.3995 9.07981 45.0697C10.4788 45.8327 12.3826 45.8327 16.1903 45.8327H33.8109C37.6186 45.8327 39.5224 45.8327 40.9214 45.0697C42.1504 44.3995 43.1187 43.3361 43.6713 42.0499C44.3004 40.5858 44.1227 38.6903 43.7673 34.8993L42.5173 21.5659C42.2171 18.3647 42.0671 16.764 41.3471 15.5539C40.7131 14.4881 39.7763 13.635 38.656 13.1032C37.3839 12.4994 35.7763 12.4994 32.5609 12.4994L17.4403 12.4993C14.225 12.4993 12.6173 12.4993 11.3452 13.1032C10.2249 13.635 9.28812 14.4881 8.65407 15.5539C7.93413 16.764 7.78407 18.3647 7.48395 21.5659Z" stroke="#ABA5FF" stroke-width="3" stroke-linecap="round" stroke-linejoin="round"/>
</svg>
